<svg width="64" height="64" viewBox="0 0 64 64" fill="none" xmlns="http://www.w3.org/2000/svg">
<path d="M21.3333 18.6667H32C34.9455 18.6667 37.3333 21.0545 37.3333 24V42.6667L32 40V24H21.3333V18.6667Z" fill="#ECECEE"/>
<path d="M13.3333 24H18.6667V56H13.3333V24Z" fill="#ECECEE"/>
<path d="M40 13.3333V23.5749C40 24.6417 40.6357 25.6058 41.6162 26.026L49.3333 29.3333" stroke="#ED243F" stroke-width="2.66667" stroke-linecap="round"/>
<path d="M13.3333 24H30.6667C31.403 24 32 24.597 32 25.3333V56C32 56.7364 31.403 57.3333 30.6667 57.3333H13.3333C12.5969 57.3333 12 56.7364 12 56V25.3333C12 24.597 12.5969 24 13.3333 24Z" stroke="#ED243F" stroke-width="2.66667"/>
<path d="M14.6667 24H15.4113C16.5591 24 17.5782 24.7345 17.9411 25.8234L18.3628 27.0883C18.5442 27.6328 19.0538 28 19.6277 28H24.3723C24.9462 28 25.4557 27.6328 25.6372 27.0883L26.0589 25.8234C26.4218 24.7345 27.4409 24 28.5887 24H29.3333" stroke="#ED243F" stroke-width="2.66667"/>
<path d="M18.6667 24H25.3333V28H18.6667V24Z" fill="#ED243F"/>
<path d="M24 52C24 53.1046 23.1046 54 22 54C20.8954 54 20 53.1046 20 52C20 50.8954 20.8954 50 22 50C23.1046 50 24 50.8954 24 52Z" fill="#ED243F"/>
<path d="M21.3333 24C21.3333 13.6907 29.6907 5.33333 40 5.33333C50.3093 5.33333 58.6667 13.6907 58.6667 24C58.6667 34.3093 50.3093 42.6667 40 42.6667C37.1371 42.6667 34.4247 42.0222 32 40.8703" stroke="#ED243F" stroke-width="2.66667"/>
</svg>
