<svg width="60" height="60" viewBox="0 0 60 60" fill="none" xmlns="http://www.w3.org/2000/svg">
<g clip-path="url(#clip0)">
<path d="M58.665 10.169C60.4238 5.99171 60.4449 3.00294 58.7278 1.2859C57.0186 -0.423408 54.02 -0.426103 49.8152 1.27828C46.9674 2.43259 43.983 4.23424 42.5577 5.65948C42.5503 5.66674 42.5432 5.67413 42.536 5.68139L37.6012 10.7474L31.6987 9.62044L32.4959 8.82321C33.4112 7.90785 33.4112 6.4239 32.4959 5.50866C31.5806 4.5933 30.0965 4.5933 29.1813 5.50866L26.1323 8.55766L21.8587 7.74168L21.949 7.65133C22.8642 6.73597 22.8642 5.25202 21.949 4.33678C21.0336 3.42142 19.5496 3.42142 18.6343 4.33678L16.2922 6.6789L13.3386 6.11499C11.129 5.69311 8.83295 6.36249 7.1963 7.90562L0.735832 13.9969C-0.205892 14.885 -0.249486 16.3682 0.638449 17.3101C1.09958 17.7991 1.72115 18.046 2.34424 18.046C2.92092 18.046 3.4989 17.8344 3.95171 17.4076L5.1598 16.2685L22.726 24.9884L12.5459 35.2393L8.19088 35.0444C8.15291 35.0427 8.11564 35.042 8.07767 35.0421C5.28238 35.0421 2.57428 36.2025 0.646535 38.2268C0.126219 38.7732 -0.099251 39.5368 0.0407889 40.2783C0.180829 41.0197 0.669386 41.6484 1.3533 41.9673L12.6889 47.2528L18.4113 58.7034C18.7527 59.3865 19.4053 59.8604 20.1606 59.9735C20.2766 59.9908 20.3925 59.9994 20.5081 59.9994C21.1445 59.9994 21.7596 59.7399 22.2053 59.2718L22.3646 59.1044C24.19 57.1877 25.1953 54.6745 25.1953 52.0276V46.5489L35.2356 36.4537L39.9107 46.4601C40.4588 47.6329 41.8539 48.1394 43.0262 47.5914C44.1989 47.0435 44.7055 45.6487 44.1576 44.476L38.0626 31.4306C37.7385 30.737 37.0963 30.2454 36.3421 30.1138C35.5887 29.9822 34.8172 30.2272 34.2773 30.77L21.1899 43.929C20.753 44.3683 20.5079 44.9624 20.5079 45.5819V52.0276C20.5079 52.1487 20.5041 52.2696 20.4963 52.3896L16.5166 44.4261C16.2799 43.9527 15.8901 43.5734 15.4106 43.3497L7.67783 39.744C7.79712 39.7353 7.91677 39.7305 8.03689 39.7296L13.3729 39.9684C14.0362 39.9992 14.6751 39.7474 15.1408 39.2785L28.3063 26.0213C28.4007 25.9303 28.488 25.8306 28.5673 25.7227C28.5713 25.7173 28.5753 25.7118 28.5793 25.7064C28.5807 25.7044 28.5821 25.7024 28.5836 25.7004C28.7527 25.4653 28.8729 25.2062 28.9444 24.9367C29.0285 24.6224 29.044 24.3005 28.9976 23.9898C28.9974 23.9881 28.9972 23.9863 28.9968 23.9845C28.9959 23.9786 28.9949 23.9726 28.9941 23.9666C28.9409 23.6298 28.8142 23.3025 28.6141 23.0105C28.4619 22.7875 28.2695 22.5887 28.0413 22.4261C28.0374 22.4234 28.0336 22.4206 28.0298 22.4179C28.0292 22.4175 28.0286 22.417 28.028 22.4167C27.9149 22.3369 27.7965 22.2683 27.674 22.211L8.79568 12.8402L10.4122 11.316C10.9577 10.8016 11.723 10.5787 12.4596 10.7191L37.6375 15.5264C38.4641 15.8029 39.4129 15.6054 40.0618 14.9393L45.8819 8.96465C46.6465 8.20551 48.6322 6.90648 50.9642 5.88108C53.3252 4.84303 54.7289 4.66162 55.3175 4.68635C55.3322 5.26924 55.1296 6.65663 54.0695 8.97708C53.02 11.2741 51.6921 13.2549 50.9225 14.0244C50.9169 14.03 50.9112 14.0356 50.9056 14.0414L45.2402 19.8237C44.5946 20.3503 44.251 21.2053 44.4181 22.0811L49.2801 47.5395C49.4207 48.276 49.1976 49.0415 48.6833 49.5871L42.5918 56.0477C41.7039 56.9895 41.7475 58.4728 42.6892 59.3608C43.142 59.7878 43.7199 59.9993 44.2967 59.9993C44.9195 59.9993 45.5413 59.7524 46.0025 59.2633L52.0939 52.8026C53.637 51.166 54.3064 48.8697 53.8845 46.6602L53.3202 43.705L55.6616 41.3636C56.5768 40.4482 56.5768 38.9642 55.6616 38.049C54.7462 37.1336 53.2622 37.1336 52.3469 38.049L52.2571 38.1388L51.4411 33.8654L54.4897 30.8167C55.4049 29.9014 55.4049 28.4174 54.4897 27.5022C53.5743 26.5868 52.0903 26.5868 51.175 27.5022L50.378 28.2992L49.2558 22.4231L54.2463 17.3298C55.6779 15.8935 57.4935 12.9517 58.665 10.169Z" fill="#ED243F"/>
</g>
<defs>
<clipPath id="clip0">
<rect width="60" height="60" fill="white"/>
</clipPath>
</defs>
</svg>
