<svg width="71" height="16" viewBox="0 0 71 16" fill="none" xmlns="http://www.w3.org/2000/svg">
<path opacity="0.8" d="M69.9968 13.2543C70.0279 13.5287 69.8306 13.7763 69.5562 13.8074L65.0848 14.3136C64.8104 14.3446 64.5628 14.1474 64.5317 13.873C64.5007 13.5986 64.6979 13.351 64.9723 13.3199L68.9469 12.87L68.497 8.89535C68.4659 8.62096 68.6632 8.37334 68.9376 8.34228C69.2119 8.31122 69.4596 8.50847 69.4906 8.78286L69.9968 13.2543ZM0.781015 8.36105C1.78121 7.87378 2.89039 7.37776 4.09638 6.88543L4.47434 7.81125C3.28705 8.29595 2.19799 8.78309 1.21898 9.26004L0.781015 8.36105ZM10.9543 4.48889C13.1494 3.83698 15.5108 3.2372 18.0009 2.72894L18.2009 3.70874C15.7403 4.21098 13.4071 4.80361 11.2389 5.44751L10.9543 4.48889ZM25.166 1.58977C27.517 1.32222 29.9403 1.15185 32.4107 1.10498L32.4297 2.1048C29.9927 2.15103 27.6009 2.31913 25.279 2.58335L25.166 1.58977ZM39.672 1.33807C42.0573 1.54112 44.4632 1.87576 46.8689 2.36398L46.67 3.344C44.3044 2.86391 41.9366 2.53447 39.5872 2.33446L39.672 1.33807ZM53.8937 4.25334C56.159 5.02175 58.4054 5.94805 60.6149 7.05101L60.1682 7.94573C58.001 6.86385 55.7966 5.9548 53.5724 5.20034L53.8937 4.25334ZM66.8815 10.7474C67.8708 11.4285 68.848 12.1519 69.8115 12.9195L69.1885 13.7016C68.2432 12.9486 67.2846 12.2391 66.3144 11.571L66.8815 10.7474ZM70.4937 13.1981C70.5558 13.7468 70.1613 14.2421 69.6125 14.3042L60.6696 15.3166C60.1208 15.3787 59.6256 14.9842 59.5635 14.4354C59.5013 13.8867 59.8959 13.3914 60.4446 13.3293L68.3939 12.4294L67.4939 4.48016C67.4318 3.93138 67.8263 3.43614 68.3751 3.37402C68.9239 3.31189 69.4191 3.7064 69.4813 4.25518L70.4937 13.1981ZM0.562031 7.91156C1.57282 7.41912 2.69206 6.91867 3.9074 6.42252L4.66331 8.27417C3.48538 8.75505 2.40638 9.23775 1.43797 9.70954L0.562031 7.91156ZM10.8119 4.00958C13.0206 3.35367 15.3961 2.75031 17.9009 2.23904L18.3009 4.19864C15.8551 4.69787 13.536 5.28692 11.3813 5.92682L10.8119 4.00958ZM25.1094 1.09297C27.4751 0.823767 29.9141 0.652253 32.4013 0.605072L32.4392 2.60471C30.0189 2.65062 27.6428 2.81759 25.3356 3.08015L25.1094 1.09297ZM39.7144 0.839868C42.1176 1.04445 44.5427 1.38169 46.9683 1.87397L46.5705 3.83402C44.2249 3.35798 41.8763 3.03114 39.5448 2.83266L39.7144 0.839868ZM54.0543 3.77984C56.3401 4.55523 58.6076 5.49015 60.8382 6.60365L59.9449 8.39309C57.7988 7.32175 55.6154 6.42133 53.4118 5.67384L54.0543 3.77984ZM67.1651 10.3356C68.1638 11.0233 69.1504 11.7536 70.1231 12.5284L68.8769 14.0927C67.9408 13.347 66.9915 12.6443 66.0309 11.9828L67.1651 10.3356Z" fill="#D5383D"/>
</svg>
