<svg xmlns="http://www.w3.org/2000/svg" viewBox="0 0 946.56 200"><g id="Layer_2" data-name="Layer 2"><g id="Layer_1-2" data-name="Layer 1"><path fill="#c80134" d="M0,99c1.91-.76,3.84-1.48,5.73-2.28,41.51-17.56,83.74-33.17,126.8-46.51,24.25-7.51,48.69-14.32,73.37-20.24,12.66-3,25.4-5.75,38.14-8.47,8.44-1.8,16.92-3.43,25.41-5,6.78-1.26,13.6-2.33,20.41-3.43C296.43,12,303,10.92,309.61,10c5.65-.82,11.33-1.49,17-2.21,5.09-.64,10.17-1.3,15.26-1.87,4.27-.48,8.55-.85,12.83-1.24,5.43-.5,10.86-1,16.3-1.44s11-.85,16.57-1.2c5.86-.37,11.71-.76,17.57-.95,12.62-.4,25.24-.77,37.87-1,8.19-.14,16.39,0,24.59.06,5.59.06,11.19.27,16.78.47,5.06.19,10.13.44,15.19.72s10.11.6,15.16,1,9.86.74,14.77,1.19C534.77,4,540,4.55,545.29,5.11c4.54.48,9.09.93,13.63,1.48s9.13,1.23,13.69,1.85c4.13.57,8.26,1.12,12.37,1.74,4.55.69,9.09,1.41,13.62,2.2q7.68,1.33,15.32,2.82c7,1.34,13.94,2.59,20.85,4.16C646.54,22,658.31,24.72,670,27.74a783.21,783.21,0,0,1,99.23,32.84,692.28,692.28,0,0,1,107.7,54.7,428.23,428.23,0,0,1,37.74,26.36l1.14.94c-.08-1.08-.12-1.94-.21-2.79-.31-2.74-.62-5.48-1-8.21-.38-3.12-.8-6.24-1.17-9.37-.28-2.39-.48-4.78-.75-7.17-.29-2.54-.63-5.08-.92-7.62-.27-2.35-.49-4.71-.76-7.06-.3-2.62-.64-5.23-.93-7.85-.27-2.39-.48-4.79-.75-7.18s-.63-5-.92-7.49c-.2-1.69-.33-3.38-.52-5.07-.29-2.54-.62-5.08-.92-7.61-.18-1.49-.37-3-.5-4.47-.27-3.19-.61-6.38-.7-9.57a12,12,0,0,1,4.16-9.2,13,13,0,0,1,9.93-3.65A13.24,13.24,0,0,1,932.6,49.09c.52,2.7.66,5.46,1,8.2.38,3.12.81,6.24,1.18,9.36.28,2.47.46,4.95.74,7.42.37,3.21.81,6.4,1.18,9.6.28,2.43.47,4.87.74,7.3s.63,4.84.92,7.26c.2,1.69.33,3.38.52,5.06.29,2.55.62,5.08.91,7.62.19,1.65.34,3.3.53,4.94.3,2.62.64,5.24.92,7.86s.48,5,.76,7.41.63,4.92.92,7.38c.2,1.73.32,3.46.52,5.18.28,2.51.61,5,.9,7.51.2,1.68.34,3.37.54,5.05.3,2.58.64,5.16.93,7.74.2,1.8.33,3.61.51,5.42a5.3,5.3,0,0,0,.24.84v5a2.39,2.39,0,0,0-.24.48,13.63,13.63,0,0,1-5.34,8.12c-3.13,2.38-6.86,2.49-10.52,2.91-1.72.2-3.45.36-5.17.55-2.54.29-5.08.61-7.62.89s-4.79.49-7.18.76c-2.62.29-5.24.62-7.86.92l-4.93.55c-2.54.29-5.08.61-7.63.89-2.39.27-4.78.49-7.17.76s-5.08.63-7.62.92c-2.39.27-4.79.48-7.18.75-2.62.29-5.23.64-7.85.93-2.35.27-4.71.47-7.06.75-3.12.37-6.24.81-9.36,1.17-2.51.28-5,.45-7.54.74-3.12.36-6.24.82-9.36,1.18s-6.36.63-9.54,1c-.87.09-1.73.31-2.59.47h-5.28a31.31,31.31,0,0,1-5.08-2.24A13.68,13.68,0,0,1,803,176.24a13.46,13.46,0,0,1,8-3.38c3.21-.29,6.4-.78,9.61-1.15,2.39-.28,4.78-.48,7.18-.75s4.91-.61,7.37-.9c1.69-.19,3.38-.34,5.06-.54,2.58-.3,5.16-.63,7.74-.92,1.68-.19,3.38-.33,5.06-.52,2.54-.29,5.08-.62,7.62-.91,1.64-.19,3.3-.34,4.94-.53,2.62-.3,5.24-.64,7.86-.92s4.94-.48,7.41-.76,4.92-.62,7.38-.91c1.76-.2,3.53-.34,5.3-.53,1.17-.12,2.33-.27,3.84-.44-2.68-1.89-5.07-3.6-7.48-5.27A719.18,719.18,0,0,0,674.53,56.31c-15.55-4.4-31.2-8.38-47-11.6q-14.78-3-29.62-5.75c-7.21-1.32-14.46-2.46-21.71-3.56-5-.76-10-1.34-15-2S551,32.13,545.91,31.55c-3.52-.4-7-.67-10.58-1-4.12-.39-8.24-.83-12.36-1.16-3.74-.31-7.48-.51-11.22-.76-4.81-.31-9.63-.63-14.45-.92-1.79-.12-3.59-.2-5.38-.27-18.54-.76-37.09-.85-55.64-.71-5.92.05-11.83.27-17.74.48q-7.85.28-15.68.72-9.62.54-19.22,1.2-6,.4-11.92,1c-5.54.51-11.08,1.09-16.62,1.64-4.12.41-8.24.77-12.35,1.24-4.93.57-9.85,1.24-14.77,1.88-5.59.72-11.19,1.38-16.77,2.21-7.92,1.19-15.83,2.43-23.72,3.81C275.55,43,263.6,45,251.72,47.41q-35.22,7.1-69.91,16.45Q127.54,78.44,74.94,98.22c-20.65,7.81-41.07,16.18-61,25.68l-1.72.81-.69-1.39L.72,100.85c-.2-.41-.48-.78-.72-1.17Z"/></g></g></svg>