<svg width="42" height="42" viewBox="0 0 42 42" fill="none" xmlns="http://www.w3.org/2000/svg">
<path d="M20.8171 21.9141L14.6487 15.992L12 18.5349L20.8171 27L39 9.54294L36.3513 7L20.8171 21.9141Z" fill="#ED243F"/>
<mask id="path-2-inside-1" fill="white">
<path d="M34.7858 19.3728C35.9523 19.2445 37.0161 20.0883 36.998 21.2617C36.9489 24.454 36.001 27.5838 34.2421 30.2825C32.0945 33.5774 28.8709 36.0258 25.1206 37.2105C21.3702 38.3952 17.325 38.2428 13.6744 36.7793C10.0238 35.3158 6.99354 32.6319 5.09998 29.1847C3.20642 25.7375 2.56671 21.7403 3.28985 17.8743C4.01298 14.0083 6.05423 10.5127 9.06578 7.98301C12.0773 5.45331 15.8728 4.04609 19.8056 4.00111C23.0267 3.96428 26.1766 4.8431 28.8971 6.51402C29.8971 7.12824 30.0386 8.47865 29.3045 9.39431C28.5704 10.31 27.2392 10.439 26.2145 9.86699C24.2823 8.7885 22.0912 8.22525 19.8542 8.25083C16.9046 8.28457 14.058 9.33998 11.7993 11.2373C9.54068 13.1345 8.00975 15.7563 7.46739 18.6558C6.92504 21.5552 7.40482 24.5531 8.82499 27.1385C10.2452 29.7239 12.5179 31.7369 15.2558 32.8345C17.9938 33.9321 21.0276 34.0464 23.8404 33.1579C26.6532 32.2694 29.0709 30.4331 30.6816 27.9618C31.9031 26.0877 32.6031 23.9363 32.7293 21.7272C32.7962 20.5555 33.6192 19.5012 34.7858 19.3728Z"/>
</mask>
<path d="M32.7293 21.7272L27.7374 21.442L32.7293 21.7272ZM36.998 21.2617L41.9975 21.3387L36.998 21.2617ZM31.9986 21.1848C31.964 23.4382 31.2948 25.6475 30.0532 27.5523L38.4309 33.0126C40.7072 29.5201 41.9339 25.4698 41.9975 21.3387L31.9986 21.1848ZM30.0532 27.5523C28.5373 29.8782 26.2618 31.6065 23.6145 32.4427L26.6266 41.9783C31.48 40.4452 35.6517 37.2767 38.4309 33.0126L30.0532 27.5523ZM23.6145 32.4427C20.9672 33.2789 18.1118 33.1714 15.5349 32.1383L11.8139 41.4203C16.5383 43.3142 21.7732 43.5114 26.6266 41.9783L23.6145 32.4427ZM15.5349 32.1383C12.958 31.1053 10.819 29.2107 9.48235 26.7774L0.717613 31.5919C3.16811 36.053 7.08961 39.5264 11.8139 41.4203L15.5349 32.1383ZM9.48235 26.7774C8.14572 24.3441 7.69415 21.5226 8.20461 18.7936L-1.62491 16.955C-2.56074 21.9581 -1.73288 27.1308 0.717613 31.5919L9.48235 26.7774ZM8.20461 18.7936C8.71506 16.0647 10.1559 13.5972 12.2817 11.8115L5.84982 4.15448C1.95252 7.4282 -0.689088 11.952 -1.62491 16.955L8.20461 18.7936ZM12.2817 11.8115C14.4075 10.0259 17.0867 9.03253 19.8628 9.00079L19.7485 -0.998561C14.659 -0.940357 9.74712 0.880754 5.84982 4.15448L12.2817 11.8115ZM19.8628 9.00079C22.1364 8.97478 24.3599 9.59509 26.2803 10.7746L31.5139 2.25346C27.9932 0.0911143 23.917 -1.04623 19.7485 -0.998561L19.8628 9.00079ZM28.6515 5.5011C25.9618 3.99973 22.9113 3.21555 19.7971 3.25116L19.9114 13.2505C21.271 13.235 22.6029 13.5773 23.7775 14.2329L28.6515 5.5011ZM19.7971 3.25116C15.6908 3.29812 11.7278 4.76743 8.58338 7.40873L15.0153 15.0658C16.3882 13.9125 18.1185 13.271 19.9114 13.2505L19.7971 3.25116ZM8.58338 7.40873C5.43897 10.05 3.30767 13.6999 2.55263 17.7364L12.3822 19.5751C12.7118 17.8126 13.6424 16.219 15.0153 15.0658L8.58338 7.40873ZM2.55263 17.7364C1.79759 21.773 2.46552 25.9465 4.44263 29.5457L13.2074 24.7312C12.3441 23.1597 12.0525 21.3375 12.3822 19.5751L2.55263 17.7364ZM4.44263 29.5457C6.41973 33.145 9.58367 35.9474 13.3954 37.4755L17.1163 28.1935C15.452 27.5263 14.0706 26.3028 13.2074 24.7312L4.44263 29.5457ZM13.3954 37.4755C17.207 39.0035 21.4306 39.1626 25.3465 37.9257L22.3344 28.3901C20.6247 28.9301 18.7806 28.8607 17.1163 28.1935L13.3954 37.4755ZM25.3465 37.9257C29.2623 36.6887 32.6281 34.1323 34.8704 30.692L26.4927 25.2317C25.5137 26.7338 24.0441 27.85 22.3344 28.3901L25.3465 37.9257ZM34.8704 30.692C36.571 28.0828 37.5455 25.0877 37.7212 22.0124L27.7374 21.442C27.6607 22.7849 27.2352 24.0926 26.4927 25.2317L34.8704 30.692ZM37.7212 22.0124C37.6942 22.4836 37.5196 22.9653 37.1647 23.3854C36.7904 23.8285 36.1596 24.2518 35.3327 24.3428L34.2388 14.4028C30.1623 14.8515 27.9139 18.3527 27.7374 21.442L37.7212 22.0124ZM25.4034 6.26675C25.9238 5.61774 26.6194 5.31243 27.1942 5.2342C27.739 5.16005 28.2393 5.27102 28.6515 5.5011L23.7775 14.2329C26.4794 15.7411 30.6403 15.7216 33.2056 12.5219L25.4034 6.26675ZM26.2803 10.7746C24.3538 9.59132 24.5321 7.35357 25.4034 6.26675L33.2056 12.5219C35.5451 9.60373 35.4405 4.66515 31.5139 2.25346L26.2803 10.7746ZM41.9975 21.3387C42.0684 16.7311 37.9566 13.9937 34.2388 14.4028L35.3327 24.3428C33.9481 24.4952 31.9638 23.4454 31.9986 21.1848L41.9975 21.3387Z" fill="#ED243F" mask="url(#path-2-inside-1)"/>
</svg>
