<svg width="32" height="32" viewBox="0 0 32 32" fill="none" xmlns="http://www.w3.org/2000/svg">
<path d="M8 2.66667H24V6.00001H21.6277C21.0538 6.00001 20.5443 6.36725 20.3628 6.9117L20.3039 7.08831C20.1224 7.63276 19.6129 8.00001 19.039 8.00001H12.961C12.3871 8.00001 11.8776 7.63277 11.6961 7.08831L11.6372 6.9117C11.4557 6.36725 10.9462 6.00001 10.3723 6.00001H8V2.66667Z" fill="#ECECEE"/>
<mask id="path-2-inside-1" fill="white">
<path d="M9.33332 28.6667H22.6667C23.403 28.6667 24 28.0697 24 27.3333V3.33333C24 2.59695 23.403 2 22.6667 2H9.33332C8.59694 2 7.99998 2.59695 7.99998 3.33333V27.3333C7.99998 28.0697 8.59694 28.6667 9.33332 28.6667Z"/>
</mask>
<path d="M22.6667 27.3333H9.33332V30H22.6667V27.3333ZM9.33332 27.3333V3.33333H6.66665V27.3333H9.33332ZM22.6667 3.33333V27.3333H25.3333V3.33333H22.6667ZM9.33332 3.33333H22.6667V0.666667H9.33332V3.33333ZM25.3333 3.33333C25.3333 1.86057 24.1394 0.666667 22.6667 0.666667V3.33333L22.6667 3.33333H25.3333ZM9.33332 27.3333L9.33332 27.3333H6.66665C6.66665 28.8061 7.86056 30 9.33332 30V27.3333ZM22.6667 30C24.1394 30 25.3333 28.8061 25.3333 27.3333H22.6667L22.6667 27.3333V30ZM9.33332 3.33333V3.33333V0.666667C7.86056 0.666667 6.66665 1.86057 6.66665 3.33333H9.33332Z" fill="#ED243F" mask="url(#path-2-inside-1)"/>
<path d="M12 2.66667L12.4142 4.32339C12.5626 4.91694 13.0959 5.33334 13.7077 5.33334H18.2923C18.9041 5.33334 19.4374 4.91694 19.5858 4.32339L20 2.66667" stroke="#ED243F" stroke-width="1.33333"/>
<path d="M20 2.66667H12L12.6667 4.66667H19.3333L20 2.66667Z" fill="#ED243F"/>
<path d="M21.3333 17.3333C21.3333 16.597 20.7364 16 20 16H14C13.2636 16 12.6667 16.597 12.6667 17.3333V20C12.6667 20.7364 13.2636 21.3333 14 21.3333H18.781C19.1347 21.3333 19.4738 21.4738 19.7239 21.7239L20.6505 22.6505C20.9025 22.9025 21.3333 22.724 21.3333 22.3676V17.3333Z" fill="#ECECEE"/>
<path d="M11.3333 14C11.3333 13.2636 11.9303 12.6667 12.6667 12.6667H19.3333C20.0697 12.6667 20.6667 13.2636 20.6667 14V17.3333C20.6667 18.0697 20.0697 18.6667 19.3333 18.6667H14.4444C14.156 18.6667 13.8752 18.7602 13.6444 18.9333L11.9733 20.1867C11.7096 20.3844 11.3333 20.1963 11.3333 19.8667V14Z" fill="#ED243F"/>
</svg>
