<svg width="64" height="64" viewBox="0 0 64 64" fill="none" xmlns="http://www.w3.org/2000/svg">
<path d="M30.8618 40.7327L17.3333 28V18.6667L40 38.6667L62.6667 18.6667V28L49.1382 40.7327C44.0042 45.5647 35.9958 45.5647 30.8618 40.7327Z" fill="#ECECEE"/>
<path d="M18.6667 38.6667C18.6667 37.9303 18.0697 37.3333 17.3333 37.3333C16.597 37.3333 16 37.9303 16 38.6667H18.6667ZM16 28C16 28.7364 16.597 29.3333 17.3333 29.3333C18.0697 29.3333 18.6667 28.7364 18.6667 28H16ZM20 20H60V17.3333H20V20ZM61.3333 21.3333V48H64V21.3333H61.3333ZM60 49.3333H20V52H60V49.3333ZM18.6667 48V38.6667H16V48H18.6667ZM18.6667 28V21.3333H16V28H18.6667ZM20 49.3333C19.2636 49.3333 18.6667 48.7364 18.6667 48H16C16 50.2091 17.7909 52 20 52V49.3333ZM61.3333 48C61.3333 48.7364 60.7364 49.3333 60 49.3333V52C62.2091 52 64 50.2091 64 48H61.3333ZM60 20C60.7364 20 61.3333 20.597 61.3333 21.3333H64C64 19.1242 62.2091 17.3333 60 17.3333V20ZM20 17.3333C17.7909 17.3333 16 19.1242 16 21.3333H18.6667C18.6667 20.597 19.2636 20 20 20V17.3333Z" fill="#ED243F"/>
<path d="M18.6667 20L36.3523 36.5803C38.4038 38.5036 41.5962 38.5036 43.6477 36.5803L61.3333 20" stroke="#ED243F" stroke-width="2.66667"/>
<path d="M17.3333 48L33.3333 33.3333" stroke="#ED243F" stroke-width="2.66667"/>
<path d="M62.6667 48L46.6667 33.3333" stroke="#ED243F" stroke-width="2.66667"/>
<path d="M13.3333 32C12.597 32 12 32.597 12 33.3333C12 34.0697 12.597 34.6667 13.3333 34.6667V32ZM13.3333 34.6667H18.6667V32H13.3333V34.6667Z" fill="#ED243F"/>
<path d="M8 20C7.26362 20 6.66667 20.5969 6.66667 21.3333C6.66667 22.0697 7.26362 22.6667 8 22.6667V20ZM8 22.6667H13.3333V20H8V22.6667Z" fill="#ED243F"/>
<path d="M8 37.3333C7.26362 37.3333 6.66667 37.9303 6.66667 38.6667C6.66667 39.4031 7.26362 40 8 40V37.3333ZM8 40H17.3333V37.3333H8V40Z" fill="#ED243F"/>
<path d="M10.6667 42.6667C9.93029 42.6667 9.33333 43.2636 9.33333 44C9.33333 44.7364 9.93029 45.3333 10.6667 45.3333V42.6667ZM10.6667 45.3333H13.3333V42.6667H10.6667V45.3333Z" fill="#ED243F"/>
<path d="M1.33333 26.6667C0.596953 26.6667 -3.57628e-07 27.2636 -3.57628e-07 28C-3.57628e-07 28.7364 0.596953 29.3333 1.33333 29.3333V26.6667ZM1.33333 29.3333H17.3333V26.6667H1.33333V29.3333Z" fill="#ED243F"/>
<path d="M13.3333 28H14.6667C16.1394 28 17.3333 26.8061 17.3333 25.3333V24" stroke="#ED243F" stroke-width="2.66667"/>
<path d="M14.6667 38.6667V38.6667C16.1394 38.6667 17.3333 39.8606 17.3333 41.3333V41.3333" stroke="#ED243F" stroke-width="2.66667"/>
</svg>
