<svg width="32" height="32" viewBox="0 0 32 32" fill="none" xmlns="http://www.w3.org/2000/svg">
<g clip-path="url(#clip0)">
<path d="M27.2735 8.83128C26.4924 9.61233 24.7547 9.14092 23.9736 8.35987C23.1926 7.57882 22.7212 5.84109 23.5022 5.06004C23.5022 5.06004 26.021 4.7504 26.802 5.53145C27.5831 6.31249 27.2735 8.83128 27.2735 8.83128Z" fill="#ECECEE"/>
<path d="M12.1884 22.9735L9.35993 20.145L14.7055 17.2666C14.9385 17.1412 15.1922 17.3949 15.0668 17.6278L12.1884 22.9735Z" fill="#ECECEE"/>
<path d="M9.36006 19.2023L13.6027 14.9596L8.41725 15.431L7.94584 18.7309L9.36006 19.2023Z" fill="#ECECEE"/>
<path d="M13.1314 22.9738L17.374 18.7311L16.9026 23.9166L13.6028 24.388L13.1314 22.9738Z" fill="#ECECEE"/>
<path d="M25.0395 5.43694L26.2686 5.355C26.6711 5.32817 27.005 5.66208 26.9781 6.06454L26.8962 7.29362C26.723 9.89159 25.5433 12.3196 23.608 14.0614L17.8406 19.252C17.4192 19.6313 17.1785 20.1716 17.1785 20.7386L17.1785 23.6412C17.1785 23.986 16.9156 24.2739 16.5722 24.3052L13.8859 24.5494C13.7579 24.561 13.6601 24.4375 13.7007 24.3156C14.0946 23.134 12.9704 22.0098 11.7888 22.4037L11.231 22.5896C11.0614 22.6462 10.8743 22.602 10.7479 22.4756L9.8576 21.5853C9.73114 21.4588 9.68699 21.2718 9.74354 21.1021L9.92946 20.5444C10.3233 19.3627 9.19918 18.2386 8.01755 18.6324C7.89566 18.6731 7.77215 18.5753 7.78378 18.4473L8.028 15.7609C8.05921 15.4175 8.34712 15.1546 8.69192 15.1546L11.5945 15.1546C12.1615 15.1546 12.7018 14.914 13.0811 14.4925L18.2718 8.72514C20.0136 6.7898 22.4416 5.61014 25.0395 5.43694Z" stroke="#ED243F" stroke-width="1.33333"/>
<path d="M10.7744 24.388C11.0347 24.1276 11.4568 24.1276 11.7172 24.388C11.9775 24.6483 11.9775 25.0704 11.7172 25.3308L10.7744 24.388ZM9.83155 27.2164C9.5712 27.4767 9.14909 27.4767 8.88874 27.2164C8.62839 26.956 8.62839 26.5339 8.88874 26.2736L9.83155 27.2164ZM11.7172 25.3308L9.83155 27.2164L8.88874 26.2736L10.7744 24.388L11.7172 25.3308Z" fill="#ED243F"/>
<path d="M7.00304 20.6165C7.26339 20.3561 7.6855 20.3561 7.94585 20.6165C8.2062 20.8768 8.2062 21.2989 7.94585 21.5593L7.00304 20.6165ZM6.06023 23.4449C5.79988 23.7053 5.37777 23.7053 5.11742 23.4449C4.85707 23.1846 4.85707 22.7625 5.11742 22.5021L6.06023 23.4449ZM7.94585 21.5593L6.06023 23.4449L5.11742 22.5021L7.00304 20.6165L7.94585 21.5593Z" fill="#ED243F"/>
<path d="M6.06008 27.2159C5.79973 27.4762 5.37762 27.4762 5.11728 27.2159C4.85693 26.9555 4.85693 26.5334 5.11728 26.2731L6.06008 27.2159ZM9.35992 23.9161L6.06008 27.2159L5.11728 26.2731L8.41711 22.9733L9.35992 23.9161Z" fill="#ED243F"/>
<path fill-rule="evenodd" clip-rule="evenodd" d="M13.4171 26.4593L12.916 26.9603C12.6557 27.2207 12.6557 27.6428 12.916 27.9032C13.1764 28.1635 13.5985 28.1635 13.8588 27.9032L15.4885 26.2735L13.5167 26.4528C13.4834 26.4558 13.4502 26.458 13.4171 26.4593Z" fill="#ED243F"/>
<path fill-rule="evenodd" clip-rule="evenodd" d="M5.87431 18.9163L5.37324 19.4174C5.11289 19.6777 4.69078 19.6777 4.43043 19.4174C4.17008 19.157 4.17008 18.7349 4.43043 18.4746L6.06004 16.845L5.88079 18.8167C5.87776 18.8501 5.8756 18.8833 5.87431 18.9163Z" fill="#ED243F"/>
<circle cx="20.2023" cy="12.1311" r="1.33333" transform="rotate(45 20.2023 12.1311)" fill="#ED243F"/>
</g>
<defs>
<clipPath id="clip0">
<rect width="32" height="32" fill="white"/>
</clipPath>
</defs>
</svg>
