<svg width="42" height="42" viewBox="0 0 42 42" fill="none" xmlns="http://www.w3.org/2000/svg">
<path d="M38.9878 13.9124C38.9825 13.7864 38.9703 13.6587 38.937 13.5379C38.9248 13.4942 38.9002 13.4522 38.8845 13.4084C38.8478 13.3087 38.8145 13.2107 38.762 13.1197C38.734 13.0724 38.6955 13.0339 38.6622 12.9884C38.6062 12.9097 38.552 12.8292 38.4837 12.7609C38.4435 12.7224 38.391 12.6909 38.3473 12.6542C38.279 12.5982 38.216 12.5369 38.1372 12.4897C38.1302 12.4844 38.1215 12.4844 38.1128 12.4792C38.1075 12.4757 38.104 12.4722 38.0988 12.4687L22.3855 3.73618C21.8587 3.44218 21.2183 3.44393 20.688 3.73443L4.90125 12.4669C4.896 12.4722 4.89075 12.4792 4.882 12.4844C4.87675 12.4862 4.86975 12.4879 4.8645 12.4914C4.80325 12.5264 4.75775 12.5772 4.7 12.6192C4.637 12.6664 4.5705 12.7084 4.5145 12.7627C4.462 12.8169 4.42175 12.8799 4.37625 12.9412C4.329 13.0024 4.2765 13.0567 4.238 13.1232C4.1925 13.1984 4.168 13.2842 4.13475 13.3664C4.11025 13.4242 4.07875 13.4784 4.063 13.5414C4.02975 13.6587 4.01925 13.7847 4.01225 13.9089C4.0105 13.9387 4 13.9649 4 13.9964V13.9982V13.9999V27.9999C4 28.6352 4.34475 29.2214 4.90125 29.5294L20.6128 38.2567L20.6145 38.2584C20.6163 38.2584 20.6163 38.2584 20.618 38.2602L20.653 38.2794C20.7283 38.3214 20.8105 38.3442 20.8892 38.3739C20.9452 38.3967 20.9995 38.4264 21.059 38.4422C21.2008 38.4789 21.3512 38.4999 21.5 38.4999C21.6488 38.4999 21.7992 38.4789 21.9445 38.4422C22.0022 38.4264 22.0565 38.3967 22.1143 38.3739C22.193 38.3442 22.2752 38.3232 22.3505 38.2794L22.3855 38.2602C22.3872 38.2584 22.3873 38.2584 22.389 38.2584L22.3907 38.2567L38.1022 29.5294C38.6553 29.2214 39 28.6352 39 27.9999V13.9999V13.9982V13.9964C39 13.9667 38.9895 13.9422 38.9878 13.9124ZM21.451 20.7759L9.3515 14.0087L14.185 11.3347L26.1445 18.1684L21.451 20.7759ZM21.535 7.26768L33.6467 13.9999L29.7198 16.1822L17.7672 9.35193L21.535 7.26768ZM7.5 16.9837L19.75 23.8367V33.7767L7.5 26.9692V16.9837ZM23.25 33.7767L23.2535 23.8384L28.5 20.9019V26.2499L32 24.4999V18.9437L35.5 16.9854V26.9692L23.25 33.7767Z" fill="#ED243F"/>
</svg>
