<svg width="42" height="42" viewBox="0 0 42 42" fill="none" xmlns="http://www.w3.org/2000/svg">
<path d="M36.4854 4.84524C35.9744 4.49699 35.3181 4.44449 34.7546 4.70699L5.00464 18.707C4.38339 19.001 3.99139 19.6292 4.00014 20.3152C4.01064 21.0012 4.42014 21.619 5.05014 21.8937L14.5001 26.029V37.7925L24.7131 30.4985L33.0501 34.1455C33.2741 34.2452 33.5139 34.2925 33.7501 34.2925C34.0669 34.2925 34.3801 34.2067 34.6601 34.037C35.1466 33.7412 35.4599 33.2267 35.4984 32.658L37.2484 6.40799C37.2869 5.78849 36.9981 5.19524 36.4854 4.84524ZM32.1699 29.9402L22.9491 25.9047L28.5001 15.0425L15.1144 22.48L9.98339 20.2347L33.5576 9.13974L32.1699 29.9402Z" fill="#ED243F"/>
</svg>
