<svg xmlns="http://www.w3.org/2000/svg" viewBox="0 0 24 20">
<path style=" stroke:none;fill-rule:nonzero;fill:rgb(0%,0%,0%);fill-opacity:1;" d="M 0.894531 0.113281 C 0.71875 0.144531 0.582031 0.21875 0.4375 0.367188 C 0.285156 0.519531 0.207031 0.660156 0.179688 0.847656 C 0.140625 1.121094 0.21875 1.371094 0.40625 1.574219 C 0.527344 1.703125 0.628906 1.777344 0.765625 1.828125 C 0.863281 1.863281 0.886719 1.863281 2.410156 1.871094 L 3.953125 1.882812 L 4.296875 3.464844 C 4.488281 4.332031 5.050781 6.921875 5.546875 9.210938 L 6.453125 13.382812 L 6.347656 13.574219 C 6.292969 13.683594 6.171875 13.898438 6.085938 14.054688 C 5.816406 14.539062 5.617188 15.023438 5.59375 15.242188 C 5.558594 15.636719 5.863281 16.050781 6.273438 16.160156 C 6.339844 16.175781 6.507812 16.183594 6.855469 16.183594 C 7.125 16.1875 7.320312 16.191406 7.285156 16.195312 C 6.914062 16.226562 6.695312 16.300781 6.382812 16.507812 C 6.253906 16.59375 6.035156 16.808594 5.917969 16.964844 C 5.5 17.53125 5.484375 18.363281 5.890625 18.953125 C 6.039062 19.171875 6.359375 19.460938 6.574219 19.570312 C 6.832031 19.699219 7.085938 19.757812 7.402344 19.757812 C 7.628906 19.757812 7.757812 19.738281 7.945312 19.679688 C 8.394531 19.535156 8.8125 19.167969 9.027344 18.722656 C 9.160156 18.453125 9.1875 18.328125 9.1875 17.976562 C 9.1875 17.722656 9.179688 17.65625 9.144531 17.535156 C 9.039062 17.152344 8.785156 16.789062 8.453125 16.542969 C 8.164062 16.332031 7.910156 16.234375 7.582031 16.203125 C 7.5 16.195312 10.265625 16.1875 13.722656 16.1875 C 17.179688 16.1875 19.945312 16.195312 19.867188 16.203125 C 19.535156 16.234375 19.28125 16.332031 18.992188 16.542969 C 18.515625 16.894531 18.25 17.40625 18.25 17.96875 C 18.25 18.480469 18.433594 18.898438 18.824219 19.269531 C 19.179688 19.605469 19.558594 19.757812 20.042969 19.757812 C 20.359375 19.757812 20.613281 19.699219 20.871094 19.570312 C 21.085938 19.460938 21.410156 19.171875 21.558594 18.953125 C 21.960938 18.363281 21.949219 17.53125 21.527344 16.964844 C 21.414062 16.808594 21.191406 16.59375 21.0625 16.507812 C 20.75 16.300781 20.535156 16.226562 20.160156 16.195312 C 20.125 16.191406 20.320312 16.1875 20.589844 16.183594 C 20.9375 16.183594 21.105469 16.175781 21.171875 16.160156 C 21.5625 16.054688 21.855469 15.683594 21.855469 15.292969 C 21.855469 14.878906 21.527344 14.492188 21.117188 14.417969 C 21.042969 14.40625 19.09375 14.398438 14.484375 14.398438 C 9.269531 14.398438 7.960938 14.394531 7.96875 14.378906 C 7.976562 14.367188 8.027344 14.25 8.085938 14.125 C 8.242188 13.792969 8.292969 13.640625 8.289062 13.488281 C 8.289062 13.414062 8.253906 13.199219 8.207031 12.953125 C 8.160156 12.726562 8.125 12.535156 8.128906 12.53125 C 8.140625 12.523438 10.628906 12.234375 19.117188 11.253906 C 21.140625 11.019531 22.855469 10.816406 22.925781 10.804688 C 23.117188 10.765625 23.238281 10.703125 23.375 10.566406 C 23.515625 10.429688 23.582031 10.320312 23.628906 10.160156 C 23.660156 10.050781 23.660156 9.875 23.660156 6.34375 C 23.660156 3.308594 23.65625 2.625 23.636719 2.554688 C 23.5625 2.269531 23.328125 2.027344 23.035156 1.921875 L 22.917969 1.882812 L 14.355469 1.871094 L 5.792969 1.863281 L 5.78125 1.777344 C 5.6875 1.1875 5.585938 0.800781 5.460938 0.558594 C 5.339844 0.320312 5.089844 0.144531 4.832031 0.105469 C 4.644531 0.0820312 1.042969 0.0859375 0.894531 0.113281 Z M 0.894531 0.113281 "/>
</svg>
