<svg width="64" height="64" viewBox="0 0 64 64" fill="none" xmlns="http://www.w3.org/2000/svg">
<g clip-path="url(#clip0)">
<path d="M30.4287 16.5254V36.0815H42.893V32.6431H33.8671V16.5254H30.4287Z" fill="#ED243F" fill-opacity="0.96"/>
<path d="M63.9996 32.2064C63.9996 15.8197 50.6497 2.4917 34.2632 2.4917C19.5652 2.4917 7.33186 13.3017 4.96536 27.2703H0.192383L8.42356 41.4539L16.8959 27.2703H11.9619C14.2197 16.955 23.3724 9.36857 34.2791 9.36857C46.8734 9.36857 57.1227 19.6136 57.1227 32.2079C57.1227 43.091 49.3394 52.2177 39.239 54.4978V61.5081C53.2077 59.1414 63.9996 46.904 63.9996 32.2064Z" fill="#ED243F" fill-opacity="0.96"/>
<path d="M5.24107 58.3994L7.4277 56.0748C8.84842 54.5286 9.82321 53.3713 10.3523 52.5871C10.8814 51.8027 11.1459 50.9045 11.1459 49.8832C11.1459 48.3663 10.6482 47.1738 9.65301 46.3002C8.6578 45.4275 7.27233 44.9912 5.49638 44.9912C3.82379 44.9912 2.48087 45.5121 1.46717 46.5514C0.453267 47.5911 -0.0352059 48.8882 0.00197215 50.3829L0.024322 50.4796H3.68711C3.68711 49.62 3.84808 49.1014 4.17 48.6241C4.49192 48.1464 4.93398 47.8932 5.49659 47.8932C6.12539 47.8932 6.5971 48.0708 6.91151 48.441C7.22612 48.8109 7.38321 49.3028 7.38321 49.9247C7.38321 50.3612 7.22784 50.8735 6.91709 51.4654C6.60634 52.0576 6.15827 52.7298 5.50024 53.485L0.342162 58.945V61.4398H11.5171V58.4312H5.27438L5.24107 58.3994Z" fill="#ED243F" fill-opacity="0.96"/>
<path d="M21.8323 45.3222H18.179V45.2593L11.6562 55.6994L11.8376 58.0015H18.179V61.4399H21.8323V58.0015H23.5515V55.2077H21.8323V45.3222ZM18.179 55.2077H14.9679L17.7429 50.5906L18.0719 50.1051L18.179 50.0989V55.2077Z" fill="#ED243F" fill-opacity="0.96"/>
<path d="M35.8017 61.44V54.483C35.8017 53.9659 35.8146 53.4916 35.7575 53.0517C35.6126 51.9428 35.312 51.074 34.8037 50.454C34.0931 49.5881 33.1277 49.1553 31.8845 49.1553C31.2555 49.1553 30.7266 49.3051 30.2048 49.6049C29.6831 49.9047 29.1398 50.3248 28.9249 50.8649V45.1074H25.0566V61.44H28.9249V52.6516C28.9249 52.4592 29.2836 52.3094 29.5502 52.202C29.8163 52.095 30.1105 52.0412 30.473 52.0412C31.043 52.0412 31.4607 52.2151 31.7382 52.5626C32.0158 52.9105 32.1484 53.5432 32.1484 54.461V61.44H33.455H35.8017Z" fill="#ED243F" fill-opacity="0.96"/>
</g>
<defs>
<clipPath id="clip0">
<rect width="64" height="64" fill="white"/>
</clipPath>
</defs>
</svg>
