<svg width="60" height="44" viewBox="0 0 60 44" fill="none" xmlns="http://www.w3.org/2000/svg">
<path d="M32.6667 6.66669H38V18.6667C38 20.1394 39.1939 21.3334 40.6667 21.3334H54V26.6667H38C35.0545 26.6667 32.6667 24.2789 32.6667 21.3334V6.66669Z" fill="#ECECEE"/>
<rect x="38" y="2.66669" width="18.6667" height="18.6667" fill="#ECECEE"/>
<path d="M39.3333 9.33333C40.0697 9.33333 40.6667 8.73638 40.6667 8C40.6667 7.26362 40.0697 6.66667 39.3333 6.66667V9.33333ZM54 20C54 19.2636 53.403 18.6667 52.6667 18.6667C51.9303 18.6667 51.3333 19.2636 51.3333 20H54ZM4.66667 9.33333H39.3333V6.66667H4.66667V9.33333ZM50 41.3333H4.66667V44H50V41.3333ZM3.33333 40V10.6667H0.666667V40H3.33333ZM51.3333 20V40H54V20H51.3333ZM4.66667 41.3333C3.93029 41.3333 3.33333 40.7364 3.33333 40H0.666667C0.666667 42.2091 2.45753 44 4.66667 44V41.3333ZM50 44C52.2091 44 54 42.2091 54 40H51.3333C51.3333 40.7364 50.7364 41.3333 50 41.3333V44ZM4.66667 6.66667C2.45752 6.66667 0.666667 8.45753 0.666667 10.6667H3.33333C3.33333 9.93029 3.93029 9.33333 4.66667 9.33333V6.66667Z" fill="#ED243F"/>
<rect x="39.3333" y="1.33333" width="18.6667" height="18.6667" rx="1.33333" stroke="#ED243F" stroke-width="2.66667"/>
<path d="M26.2764 23.228C24.857 23.228 20.8271 21.9331 19.1602 19.2843C19.0596 19.1246 18.8141 19.1459 18.7718 19.3298C18.2236 21.7173 19.7496 23.7944 20.2096 24.2543C19.6 24.2113 19.2382 24.1666 18.7469 23.9441C18.6562 23.903 18.5503 23.9669 18.552 24.0664C18.5678 24.9886 18.7685 26.703 21.3288 27.5286C20.4578 27.5286 19.9063 27.3623 19.626 27.2453C19.5273 27.2041 19.4043 27.2778 19.4184 27.3838C19.6104 28.8274 21.4285 29.9708 23.1692 29.9708C21.7488 30.8111 20.5276 31.1731 17.6273 31.2107C17.4763 31.2126 17.419 31.412 17.5474 31.4916L17.9125 31.7175C20.4349 33.2789 23.4815 33.7539 26.3595 33.0344C30.6389 31.9645 33.6409 28.1195 33.6409 23.7084V22.1578C33.6409 20.3275 32.1572 18.8438 30.3269 18.8438H29.9586C27.925 18.8438 26.2764 20.4924 26.2764 22.526V23.228Z" fill="#ED243F"/>
<path d="M34.5604 19.3387L31.8464 20.1345L32.1686 23.8513C33.3427 22.8759 34.3874 22.1431 35.1476 20.9423C35.222 20.8247 35.1148 20.6818 34.9795 20.7144L33.4896 21.0729C34.0312 20.6182 34.4155 20.1478 34.7412 19.558C34.8083 19.4365 34.6937 19.2996 34.5604 19.3387Z" fill="#ED243F"/>
<path d="M45.6095 11.0572C45.0888 10.5365 44.2446 10.5365 43.7239 11.0572C43.2032 11.5779 43.2032 12.4221 43.7239 12.9428L45.6095 11.0572ZM53.7078 8.83293C54.1678 8.25791 54.0746 7.41885 53.4996 6.95884C52.9246 6.49883 52.0855 6.59206 51.6255 7.16707L53.7078 8.83293ZM46.28 13.6133L47.2228 12.6705L46.28 13.6133ZM43.7239 12.9428L45.3372 14.5561L47.2228 12.6705L45.6095 11.0572L43.7239 12.9428ZM49.3051 14.3363L53.7078 8.83293L51.6255 7.16707L47.2228 12.6705L49.3051 14.3363ZM45.3372 14.5561C46.461 15.68 48.3122 15.5774 49.3051 14.3363L47.2228 12.6705L47.2228 12.6705L45.3372 14.5561Z" fill="#ED243F"/>
</svg>
