<svg width="22" height="26" viewBox="0 0 22 26" fill="none" xmlns="http://www.w3.org/2000/svg">
<path d="M5.01067 9.67717L3.12533 7.79184C2.04933 8.8665 1.2 10.1852 0.670667 11.6038L3.168 12.5385C3.56667 11.4732 4.20267 10.4838 5.01067 9.67717ZM21.3333 15.3318C21.3333 12.4812 20.224 9.80384 18.208 7.79184C16.5133 6.09317 14.344 5.04917 12 4.7585V0.666504L5.33333 5.99984L12 11.3332V7.45184C13.6293 7.72384 15.132 8.48517 16.3227 9.67717C17.8347 11.1878 18.6667 13.1958 18.6667 15.3332C18.6667 15.3345 18.6667 15.3358 18.6667 15.3358C18.6667 15.7758 18.6227 16.2092 18.552 16.6385C18.5427 16.6958 18.5373 16.7558 18.5267 16.8132C18.4493 17.2225 18.3373 17.6212 18.1973 18.0158C17.92 18.7958 17.5227 19.5292 17.0093 20.1945C16.796 20.4732 16.568 20.7438 16.3213 20.9905C16.0773 21.2345 15.816 21.4558 15.544 21.6652C15.48 21.7145 15.416 21.7612 15.3507 21.8078C15.0933 21.9958 14.8267 22.1692 14.5493 22.3252C13.852 22.7145 13.1013 22.9972 12.3147 23.1612C12.1253 23.2012 11.9347 23.2278 11.7413 23.2532C11.6587 23.2652 11.5787 23.2812 11.496 23.2892C10.652 23.3745 9.78933 23.3305 8.96533 23.1518L8.4 25.7585C9.14267 25.9185 9.90533 25.9998 10.6667 25.9998C11.04 25.9998 11.412 25.9785 11.7787 25.9398C11.8707 25.9305 11.9627 25.9118 12.0547 25.8998C12.328 25.8652 12.6 25.8252 12.868 25.7692C12.892 25.7638 12.9147 25.7625 12.9387 25.7572L12.9373 25.7505C13.936 25.5358 14.8933 25.1798 15.7853 24.6905L15.7867 24.6918C15.8 24.6838 15.812 24.6745 15.824 24.6665C16.2027 24.4572 16.5667 24.2172 16.9187 23.9612C17.004 23.8998 17.088 23.8372 17.1707 23.7732C17.5307 23.4945 17.88 23.1998 18.2067 22.8732C18.5373 22.5438 18.8333 22.1892 19.1147 21.8265C19.1427 21.7892 19.18 21.7558 19.208 21.7185L19.2 21.7132C19.816 20.8945 20.304 19.9998 20.6573 19.0505L20.668 19.0545C20.7067 18.9505 20.7347 18.8438 20.7693 18.7385C20.8187 18.5918 20.8693 18.4438 20.912 18.2945C20.9653 18.1078 21.0093 17.9198 21.052 17.7305C21.0813 17.5985 21.116 17.4705 21.14 17.3372C21.1827 17.1092 21.2147 16.8785 21.2413 16.6492C21.2547 16.5478 21.272 16.4492 21.2813 16.3465C21.312 16.0145 21.3307 15.6798 21.3307 15.3425C21.3333 15.3398 21.3333 15.3372 21.3333 15.3318ZM4.26267 20.1292L2.12933 21.7305C2.43467 22.1372 2.76933 22.5225 3.124 22.8745C3.84533 23.5958 4.664 24.2092 5.55467 24.6972L6.836 22.3585C6.16667 21.9918 5.552 21.5318 5.008 20.9865C4.74267 20.7225 4.492 20.4332 4.26267 20.1292ZM2.66667 15.3332C2.66667 15.1398 2.67333 14.9505 2.68667 14.7612L0.0279999 14.5705C0.00933321 14.8225 0 15.0758 0 15.3332C0 16.6185 0.226667 17.8732 0.672 19.0665L3.16933 18.1318C2.836 17.2398 2.66667 16.2985 2.66667 15.3332Z" fill="black"/>
</svg>
