<svg width="36" height="36" viewBox="0 0 36 36" fill="none" xmlns="http://www.w3.org/2000/svg">
<path d="M16.5 9H13.5V13.5H9V16.5H13.5V21H16.5V16.5H21V13.5H16.5V9Z" fill="black"/>
<path d="M15 3C8.3835 3 3 8.3835 3 15C3 21.6165 8.3835 27 15 27C17.769 27 20.3145 26.0475 22.3455 24.468L28.9395 31.062L31.0605 28.941L24.4665 22.347C26.0475 20.3145 27 17.769 27 15C27 8.3835 21.6165 3 15 3ZM15 24C10.0365 24 6 19.9635 6 15C6 10.0365 10.0365 6 15 6C19.9635 6 24 10.0365 24 15C24 19.9635 19.9635 24 15 24Z" fill="black"/>
</svg>
