<svg width="36" height="36" viewBox="0 0 36 36" fill="none" xmlns="http://www.w3.org/2000/svg">
<path d="M20.1002 3.14423C15.0632 2.45723 10.0067 4.35023 6.69465 8.14073C3.84765 11.4047 2.55315 15.7637 3.14415 20.1002C3.93915 25.9412 8.33115 30.9107 14.0717 32.4692C15.3677 32.8217 16.6892 33.0002 17.9987 33.0002L18.2117 32.9987C19.7597 32.9747 21.1712 32.1752 21.9857 30.8597C22.7972 29.5457 22.8842 27.9302 22.2152 26.5412L21.9167 25.9172C21.2897 24.6152 21.7352 23.5622 22.0577 23.0492C22.8662 21.7622 24.4982 21.2342 25.9217 21.9167L26.5397 22.2122C27.1577 22.5092 27.8147 22.6607 28.4912 22.6607C30.9407 22.6607 32.9627 20.6642 33.0002 18.2102C33.0212 16.8302 32.8427 15.4367 32.4707 14.0702C30.9107 8.33123 25.9412 3.93923 20.1002 3.14423ZM27.8372 19.5077L27.2192 19.2122C24.4772 17.8952 21.1142 18.9152 19.5167 21.4532C18.4097 23.2172 18.2972 25.3172 19.2107 27.2162L19.5092 27.8402C19.7357 28.3112 19.7087 28.8362 19.4327 29.2817C19.1552 29.7302 18.6947 29.9927 18.1667 30.0002H17.9987C16.9547 30.0002 15.8972 29.8562 14.8562 29.5757C10.2617 28.3292 6.75165 24.3572 6.11715 19.6967C5.63565 16.1642 6.64515 12.7622 8.95665 10.1132C11.2367 7.50023 14.5337 6.00023 18.0002 6.00023C18.5612 6.00023 19.1312 6.03923 19.6967 6.11723C24.3572 6.75173 28.3292 10.2632 29.5757 14.8562C29.8727 15.9512 30.0152 17.0672 29.9987 18.1667C29.9807 19.3772 28.7312 19.9412 27.8372 19.5077Z" fill="black"/>
<path d="M11.25 24C12.4926 24 13.5 22.9926 13.5 21.75C13.5 20.5074 12.4926 19.5 11.25 19.5C10.0074 19.5 9 20.5074 9 21.75C9 22.9926 10.0074 24 11.25 24Z" fill="black"/>
<path d="M11.25 18C12.4926 18 13.5 16.9926 13.5 15.75C13.5 14.5074 12.4926 13.5 11.25 13.5C10.0074 13.5 9 14.5074 9 15.75C9 16.9926 10.0074 18 11.25 18Z" fill="black"/>
<path d="M15.75 13.5C16.9926 13.5 18 12.4926 18 11.25C18 10.0074 16.9926 9 15.75 9C14.5074 9 13.5 10.0074 13.5 11.25C13.5 12.4926 14.5074 13.5 15.75 13.5Z" fill="black"/>
<path d="M21.75 13.5C22.9926 13.5 24 12.4926 24 11.25C24 10.0074 22.9926 9 21.75 9C20.5074 9 19.5 10.0074 19.5 11.25C19.5 12.4926 20.5074 13.5 21.75 13.5Z" fill="black"/>
</svg>
