<svg width="64" height="64" viewBox="0 0 64 64" fill="none" xmlns="http://www.w3.org/2000/svg">
<path d="M8 22.6667H21.3333L8 50.6667V22.6667Z" fill="#ECECEE"/>
<path d="M32 8L36 12L38.6667 17.3333H34.6667V22.6667C34.6667 24.1394 33.4728 25.3333 32 25.3333V25.3333C30.5273 25.3333 29.3333 24.1394 29.3333 22.6667V17.3333H25.3333L28 12L32 8Z" fill="#ECECEE"/>
<path d="M24 22.6667C24.7364 22.6667 25.3333 22.0697 25.3333 21.3333C25.3333 20.5969 24.7364 20 24 20V22.6667ZM40 20C39.2636 20 38.6667 20.5969 38.6667 21.3333C38.6667 22.0697 39.2636 22.6667 40 22.6667V20ZM54.6667 52H9.33333V54.6667H54.6667V52ZM7.99999 50.6667V24H5.33332V50.6667H7.99999ZM56 24V50.6667H58.6667V24H56ZM9.33332 22.6667H24V20H9.33332V22.6667ZM40 22.6667H54.6667V20H40V22.6667ZM9.33333 52C8.59694 52 7.99999 51.403 7.99999 50.6667H5.33332C5.33332 52.8758 7.12419 54.6667 9.33333 54.6667V52ZM54.6667 54.6667C56.8758 54.6667 58.6667 52.8758 58.6667 50.6667H56C56 51.403 55.403 52 54.6667 52V54.6667ZM58.6667 24C58.6667 21.7909 56.8758 20 54.6667 20V22.6667C55.403 22.6667 56 23.2636 56 24H58.6667ZM7.99999 24C7.99999 23.2636 8.59694 22.6667 9.33332 22.6667V20C7.12418 20 5.33332 21.7909 5.33332 24H7.99999Z" fill="#ED243F"/>
<path d="M28 24C28 24.7364 28.597 25.3333 29.3333 25.3333C30.0697 25.3333 30.6667 24.7364 30.6667 24H28ZM30.6667 24V17.3333H28V24H30.6667Z" fill="#ED243F"/>
<path d="M33.3333 24C33.3333 24.7364 33.9303 25.3333 34.6667 25.3333C35.403 25.3333 36 24.7364 36 24H33.3333ZM36 24V17.3333H33.3333V24H36Z" fill="#ED243F"/>
<path d="M29.3333 18.6667C30.0697 18.6667 30.6667 18.0697 30.6667 17.3333C30.6667 16.597 30.0697 16 29.3333 16V18.6667ZM34.6667 16C33.9303 16 33.3333 16.597 33.3333 17.3333C33.3333 18.0697 33.9303 18.6667 34.6667 18.6667V16ZM32.4523 7.3903L31.3216 8.09696L32.4523 7.3903ZM27.229 16.816L32.6784 8.09696L30.4171 6.68363L24.9677 15.4027L27.229 16.816ZM31.3216 8.09696L36.771 16.816L39.0323 15.4027L33.5829 6.68363L31.3216 8.09696ZM26.7767 18.6667H29.3333V16H26.7767V18.6667ZM37.2233 16H34.6667V18.6667H37.2233V16ZM36.771 16.816C36.549 16.4608 36.8044 16 37.2233 16V18.6667C38.8989 18.6667 39.9204 16.8236 39.0323 15.4027L36.771 16.816ZM32.6784 8.09696C32.3651 8.5983 31.6349 8.5983 31.3216 8.09696L33.5829 6.68363C32.8518 5.51385 31.1482 5.51385 30.4171 6.68363L32.6784 8.09696ZM24.9677 15.4027C24.0796 16.8236 25.1011 18.6667 26.7767 18.6667V16C27.1956 16 27.451 16.4608 27.229 16.816L24.9677 15.4027Z" fill="#ED243F"/>
<path d="M38.0172 32.2385C38.166 31.4201 37.5373 30.6667 36.7054 30.6667H27.2946C26.4627 30.6667 25.834 31.4201 25.9828 32.2385L26.1818 33.3333H37.8182L38.0172 32.2385Z" fill="#ED243F"/>
<path d="M37.3333 36H26.6667L27.6729 43.0438C27.8606 44.3575 28.9857 45.3333 30.3128 45.3333H33.6872C35.0143 45.3333 36.1394 44.3575 36.3271 43.0438L37.3333 36Z" fill="#ED243F"/>
</svg>
