<svg width="64" height="64" viewBox="0 0 64 64" fill="none" xmlns="http://www.w3.org/2000/svg">
<path d="M34.6667 20H40V29.3333C40 30.8061 41.1939 32 42.6667 32H53.3333V37.3333H40C37.0545 37.3333 34.6667 34.9455 34.6667 32V20Z" fill="#ECECEE"/>
<rect x="42.6667" y="13.3333" width="16" height="16" fill="#ECECEE"/>
<path d="M41.3333 20C42.0697 20 42.6667 19.4031 42.6667 18.6667C42.6667 17.9303 42.0697 17.3333 41.3333 17.3333V20ZM56 30.6667C56 29.9303 55.403 29.3333 54.6667 29.3333C53.9303 29.3333 53.3333 29.9303 53.3333 30.6667H56ZM6.66667 20H41.3333V17.3333H6.66667V20ZM52 52H6.66667V54.6667H52V52ZM5.33333 50.6667V21.3333H2.66667V50.6667H5.33333ZM53.3333 30.6667V50.6667H56V30.6667H53.3333ZM6.66667 52C5.93029 52 5.33333 51.4031 5.33333 50.6667H2.66667C2.66667 52.8758 4.45753 54.6667 6.66667 54.6667V52ZM52 54.6667C54.2091 54.6667 56 52.8758 56 50.6667H53.3333C53.3333 51.4031 52.7364 52 52 52V54.6667ZM6.66667 17.3333C4.45752 17.3333 2.66667 19.1242 2.66667 21.3333H5.33333C5.33333 20.597 5.93029 20 6.66667 20V17.3333Z" fill="#ED243F"/>
<path d="M47.6095 21.7239C47.0888 21.2032 46.2446 21.2032 45.7239 21.7239C45.2032 22.2446 45.2032 23.0888 45.7239 23.6095L47.6095 21.7239ZM55.7078 19.4996C56.1678 18.9246 56.0746 18.0855 55.4996 17.6255C54.9246 17.1655 54.0855 17.2587 53.6255 17.8337L55.7078 19.4996ZM50.2639 24.1701L49.2228 23.3372L50.2639 24.1701ZM45.7239 23.6095L47.3372 25.2228L49.2228 23.3372L47.6095 21.7239L45.7239 23.6095ZM51.3051 25.003L55.7078 19.4996L53.6255 17.8337L49.2228 23.3372L51.3051 25.003ZM47.3372 25.2228C48.461 26.3466 50.3122 26.2441 51.3051 25.003L49.2228 23.3372L49.2228 23.3372L47.3372 25.2228Z" fill="#ED243F"/>
<rect x="41.3333" y="12" width="18.6667" height="18.6667" rx="1.33333" stroke="#ED243F" stroke-width="2.66667"/>
<path d="M35.3506 30.9052C35.4994 30.0867 34.8706 29.3333 34.0387 29.3333H24.6279C23.7961 29.3333 23.1673 30.0867 23.3161 30.9052L23.5152 32H35.1515L35.3506 30.9052Z" fill="#ED243F"/>
<path d="M34.6667 34.6667H24L25.0063 41.7105C25.194 43.0242 26.3191 44 27.6461 44H31.0206C32.3476 44 33.4728 43.0242 33.6604 41.7104L34.6667 34.6667Z" fill="#ED243F"/>
</svg>
