<svg width="32" height="32" viewBox="0 0 32 32" fill="none" xmlns="http://www.w3.org/2000/svg">
<path d="M9.33333 14.6667C9.33333 13.9303 9.93028 13.3333 10.6667 13.3333H15.176C15.681 13.3333 16.1427 13.6187 16.3685 14.0704L17.1491 15.6315C17.262 15.8573 17.4928 16 17.7454 16H24C24.7364 16 25.3333 16.5969 25.3333 17.3333V20L17.3379 18.7699C16.9169 18.7052 16.5534 18.4402 16.363 18.0593V18.0593C16.1405 17.6144 15.6858 17.3333 15.1884 17.3333H9.33333V14.6667Z" fill="#ECECEE"/>
<path d="M10.6667 26C10.6667 26.7364 11.2636 27.3333 12 27.3333H16L10.6667 16V26Z" fill="#ECECEE"/>
<path d="M27.3333 22.6667C29.6336 22.1169 30.6667 20.0219 30.6667 17.7143C30.6667 15.0622 28.4216 12.897 25.6 12.768C25.4528 12.7613 25.3339 12.642 25.3283 12.4948C25.1768 8.51584 21.6553 5.33333 17.3333 5.33333C13.8591 5.33333 10.9021 7.3898 9.79709 10.2634C9.7476 10.3921 9.61125 10.4663 9.4763 10.438C9.00142 10.3383 8.50733 10.2857 8 10.2857C4.3181 10.2857 1.33333 13.0573 1.33333 16.4762C1.33333 19.5983 3.99999 22.6667 7.33333 22.6667" stroke="#ED243F" stroke-width="1.33333" stroke-linecap="round"/>
<path d="M24.6667 20V26.6667C24.6667 27.0349 24.3682 27.3333 24 27.3333H10.6667C10.2985 27.3333 9.99999 27.0349 9.99999 26.6667V17.3333C9.99999 16.9651 10.2985 16.6667 10.6667 16.6667H15.176C15.4285 16.6667 15.6593 16.8093 15.7722 17.0352L16.5528 18.5963C16.7786 19.048 17.2403 19.3333 17.7454 19.3333H24C24.3682 19.3333 24.6667 19.6318 24.6667 20Z" stroke="#ED243F" stroke-width="1.33333"/>
<rect x="18.6667" y="24" width="4" height="1.33333" rx="0.666667" fill="#ED243F"/>
</svg>
