<svg width="64" height="64" viewBox="0 0 64 64" fill="none" xmlns="http://www.w3.org/2000/svg">
<path d="M9.33334 17.3333L38.6667 48H26.6667L9.33334 30.6667V17.3333Z" fill="#ECECEE"/>
<path d="M9.33333 16H54.6667C55.403 16 56 16.597 56 17.3333L56 46.6667C56 47.403 55.403 48 54.6667 48H26.443C26.0879 48 25.7474 47.8583 25.4971 47.6064L8.38743 30.3838C8.13927 30.1341 8 29.7962 8 29.4441V17.3333C8 16.597 8.59695 16 9.33333 16Z" stroke="#ED243F" stroke-width="2.66667"/>
<path d="M24 53.3333H2.66666V32L24 53.3333Z" fill="#ECECEE"/>
<path d="M53.3333 53.3333H58.6667C60.1394 53.3333 61.3333 52.1394 61.3333 50.6667V45.3333" stroke="#ED243F" stroke-width="2.66667" stroke-linecap="round"/>
<path d="M53.3333 10.6667H58.6667C60.1394 10.6667 61.3333 11.8606 61.3333 13.3333V18.6667" stroke="#ED243F" stroke-width="2.66667" stroke-linecap="round"/>
<path d="M5.33334 53.3333H22.7124C23.1876 53.3333 23.4255 52.7589 23.0895 52.4229L3.57712 32.9105C3.24114 32.5745 2.66667 32.8124 2.66667 33.2876V50.6667C2.66667 52.1394 3.86058 53.3333 5.33334 53.3333Z" stroke="#ED243F" stroke-width="2.66667" stroke-linecap="round"/>
<path d="M10.6667 10.6667H5.33333C3.86057 10.6667 2.66666 11.8606 2.66666 13.3333V18.6667" stroke="#ED243F" stroke-width="2.66667" stroke-linecap="round"/>
<path d="M9.72386 44.3905C9.20316 44.9112 9.20316 45.7554 9.72386 46.2761C10.2446 46.7968 11.0888 46.7968 11.6095 46.2761L9.72386 44.3905ZM12.3905 41.7239L9.72386 44.3905L11.6095 46.2761L14.2761 43.6095L12.3905 41.7239Z" fill="#ED243F"/>
<path d="M15.0572 47.0572C14.5365 47.5779 14.5365 48.4221 15.0572 48.9428C15.5779 49.4635 16.4221 49.4635 16.9428 48.9428L15.0572 47.0572ZM16.3905 45.7238L15.0572 47.0572L16.9428 48.9428L18.2761 47.6095L16.3905 45.7238Z" fill="#ED243F"/>
<path d="M7.05719 39.0572C6.53649 39.5779 6.53649 40.4221 7.05719 40.9428C7.57789 41.4635 8.42211 41.4635 8.94281 40.9428L7.05719 39.0572ZM8.39052 37.7239L7.05719 39.0572L8.94281 40.9428L10.2761 39.6095L8.39052 37.7239Z" fill="#ED243F"/>
<path d="M38.0091 25.5716C38.158 24.7531 37.5292 23.9998 36.6973 23.9998H27.2865C26.4546 23.9998 25.8259 24.7531 25.9747 25.5716L26.1738 26.6664H37.8101L38.0091 25.5716Z" fill="#ED243F"/>
<path d="M37.3252 29.3331H26.6586L27.6649 36.3769C27.8525 37.6906 28.9777 38.6664 30.3047 38.6664H33.6791C35.0062 38.6664 36.1313 37.6906 36.319 36.3769L37.3252 29.3331Z" fill="#ED243F"/>
</svg>
