<svg width="150" height="84" viewBox="0 0 150 84" fill="none" xmlns="http://www.w3.org/2000/svg">
<path d="M7.19253 81.1731L1.98528 74.2307C7.19253 70.8981 21.5777 66.788 19.4529 63.4418C17.9107 61.0131 16.4401 60.9655 14.8989 59.5955L20.0364 2.56877H66.788L72.4393 6.6788L77.063 2.56877L145.906 4.11003V46.2379C145.906 48.8066 146.934 50.3479 142.824 51.8892C138.714 53.4304 141.796 52.9167 140.255 54.4579C138.714 55.9992 66.788 59.5955 63.1917 59.5955C59.5955 59.5955 52.4029 67.3018 49.3204 67.8155C46.8544 68.2265 20.2076 76.8919 7.19253 81.1731Z" fill="#ED243F"/>
<path d="M8.79275 83.0524C6.96949 83.0524 5.16257 82.2523 4.07685 80.9648L1.02434 77.3431C0.159601 76.3178 -0.180041 75.0296 0.0913884 73.8103C0.362818 72.5903 1.2169 71.5685 2.43477 71.0064L16.9463 64.3074L15.1529 62.7712C13.5726 61.4212 12.5068 58.8405 12.6731 56.7692L16.8909 4.4594C17.0919 1.95898 19.2158 0 21.7269 0L21.8214 0.000710157L66.183 0.883921C68.2393 0.925133 70.7106 2.2027 71.9327 3.85614L72.234 4.26329L72.5338 3.87106C73.783 2.21762 76.2045 1.01679 78.2921 1.01679L144.238 1.88579C146.795 1.91919 148.899 4.02667 148.93 6.58322L149.412 47.503C149.441 50.0311 147.537 52.2054 145.076 52.4533C144.799 52.481 144.421 52.8747 144.399 53.2541L144.346 54.1999C144.203 56.6996 142.134 58.7644 139.636 58.9023L65.449 62.9837C64.3554 63.0448 62.476 63.5635 61.5069 64.0743L51.6018 69.2869C50.2376 70.0053 48.0178 70.9311 46.5491 71.3958L10.4398 82.8079C9.92323 82.9699 9.36972 83.0524 8.79275 83.0524ZM4.44207 74.7752L7.33684 78.2171C7.57416 78.4985 8.18382 78.7898 8.79275 78.7898C8.96826 78.7898 9.08479 78.7642 9.15229 78.7436L45.2616 67.3315C46.4845 66.9449 48.4775 66.1129 49.6137 65.5146L59.5187 60.302C61.0436 59.4991 63.4907 58.8227 65.2117 58.7275L139.398 54.6461C139.721 54.6283 140.069 54.2809 140.088 53.9576L140.141 53.0118C140.281 50.559 142.261 48.4508 144.649 48.2107C144.87 48.1886 145.15 47.8739 145.146 47.5527L144.664 6.63367C144.662 6.38285 144.431 6.15192 144.18 6.14837L78.3049 5.28008C77.5581 5.28008 76.368 5.86628 75.9338 6.44111L75.4585 7.07066C74.6506 8.14074 73.4739 8.75466 72.2304 8.75466C70.9721 8.75466 69.7876 8.12866 68.9811 7.03726L68.5036 6.39137C68.0595 5.78954 66.8445 5.16213 66.097 5.14721L21.7354 4.264C21.4469 4.264 21.162 4.52548 21.1399 4.80188L16.9221 57.1117C16.8639 57.8372 17.3684 59.0572 17.9219 59.5297L20.3043 61.5647C21.3773 62.482 21.8945 63.7212 21.7226 64.9654C21.5506 66.2095 20.7172 67.2618 19.4353 67.8537L4.44207 74.7752Z" fill="#ED243F"/>
</svg>
