<svg width="62" height="46" viewBox="0 0 62 46" fill="none" xmlns="http://www.w3.org/2000/svg">
<g clip-path="url(#clip0)">
<path d="M39.3333 11.3333C40.0697 11.3333 40.6667 10.7364 40.6667 10C40.6667 9.26362 40.0697 8.66667 39.3333 8.66667V11.3333ZM54 15.3333C54 14.597 53.403 14 52.6667 14C51.9303 14 51.3333 14.597 51.3333 15.3333H54ZM4.66667 11.3333H39.3333V8.66667H4.66667V11.3333ZM50 43.3333H4.66667V46H50V43.3333ZM3.33333 42V12.6667H0.666667V42H3.33333ZM51.3333 15.3333V42H54V15.3333H51.3333ZM4.66667 43.3333C3.93029 43.3333 3.33333 42.7364 3.33333 42H0.666667C0.666667 44.2091 2.45753 46 4.66667 46V43.3333ZM50 46C52.2091 46 54 44.2091 54 42H51.3333C51.3333 42.7364 50.7364 43.3333 50 43.3333V46ZM4.66667 8.66667C2.45753 8.66667 0.666667 10.4575 0.666667 12.6667H3.33333C3.33333 11.9303 3.93029 11.3333 4.66667 11.3333V8.66667Z" fill="#ED243F"/>
<path d="M54 4.66669L42 16.6667L46 20.6667L58 8.66669L56.6667 6.00002L54 4.66669Z" fill="#ECECEE"/>
<path d="M51.3333 15.3333V27.3333H40.6667C39.1939 27.3333 38 26.1394 38 24.6666V24.6666L47.1167 21.9567L51.3333 15.3333Z" fill="#ECECEE"/>
<path d="M50.7709 19.1121C50.2502 19.6328 49.406 19.6328 48.8853 19.1121C48.3646 18.5914 48.3646 17.7472 48.8853 17.2265L50.7709 19.1121ZM45.4376 13.7787C44.9169 14.2994 44.0727 14.2994 43.552 13.7787C43.0313 13.258 43.0313 12.4138 43.552 11.8931L45.4376 13.7787ZM43.552 11.8931L49.9283 5.51684L51.8139 7.40246L45.4376 13.7787L43.552 11.8931ZM57.1472 12.7358L50.7709 19.1121L48.8853 17.2265L55.2616 10.8502L57.1472 12.7358ZM57.1472 5.51684C59.1407 7.5103 59.1407 10.7423 57.1472 12.7358L55.2616 10.8502C56.2137 9.89812 56.2137 8.35452 55.2616 7.40246L57.1472 5.51684ZM55.2616 7.40246C54.3095 6.4504 52.766 6.4504 51.8139 7.40246L49.9283 5.51684C51.9217 3.52338 55.1538 3.52339 57.1472 5.51684L55.2616 7.40246Z" fill="#ED243F"/>
<path d="M56.4806 13.4038C55.9599 13.9245 55.1156 13.9245 54.5949 13.4038C54.0742 12.8831 54.0742 12.0388 54.5949 11.5181L56.4806 13.4038ZM51.1472 8.07043C50.6265 8.59113 49.7823 8.59113 49.2616 8.07043C48.7409 7.54973 48.7409 6.70551 49.2616 6.18482L51.1472 8.07043ZM49.2616 6.18482L53.3115 2.13493L55.1971 4.02055L51.1472 8.07043L49.2616 6.18482ZM60.5304 9.35388L56.4806 13.4038L54.5949 11.5181L58.6448 7.46827L60.5304 9.35388ZM60.5304 2.13493C62.5239 4.12839 62.5239 7.36043 60.5304 9.35388L58.6448 7.46827C59.5969 6.51621 59.5969 4.97261 58.6448 4.02055L60.5304 2.13493ZM58.6448 4.02055C57.6928 3.06849 56.1492 3.06849 55.1971 4.02055L53.3115 2.13493C55.305 0.141474 58.537 0.141476 60.5304 2.13493L58.6448 4.02055Z" fill="#ED243F"/>
<path d="M55.4628 10.6509C55.9835 10.1302 56.8277 10.1302 57.3484 10.6509C57.8691 11.1716 57.8691 12.0159 57.3484 12.5366L55.4628 10.6509ZM50.1295 5.31761C50.6502 4.79691 51.4944 4.79691 52.0151 5.31761C52.5358 5.83831 52.5358 6.68253 52.0151 7.20323L50.1295 5.31761ZM38.3332 24.6453L38.5868 25.9543L38.3332 24.6453ZM38.0207 24.3328L36.7117 24.0792L38.0207 24.3328ZM57.3484 12.5366L49.4517 20.4332L47.5661 18.5476L55.4628 10.6509L57.3484 12.5366ZM42.2328 13.2143L50.1295 5.31761L52.0151 7.20323L44.1184 15.0999L42.2328 13.2143ZM49.4517 20.4332L47.2348 22.6502L45.3491 20.7646L47.5661 18.5476L49.4517 20.4332ZM40.0158 15.4313L42.2328 13.2143L44.1184 15.0999L41.9014 17.3169L40.0158 15.4313ZM42.4104 25.2135L38.5868 25.9543L38.0796 23.3363L41.9032 22.5955L42.4104 25.2135ZM36.7117 24.0792L37.4525 20.2556L40.0705 20.7628L39.3297 24.5864L36.7117 24.0792ZM38.5868 25.9543C37.4741 26.1699 36.4961 25.192 36.7117 24.0792L39.3297 24.5864C39.4734 23.8445 38.8215 23.1926 38.0796 23.3363L38.5868 25.9543ZM41.9014 17.3169C40.9611 18.2572 40.3235 19.4573 40.0705 20.7628L37.4525 20.2556C37.8067 18.4278 38.6993 16.7477 40.0158 15.4313L41.9014 17.3169ZM47.2348 22.6502C45.9183 23.9667 44.2382 24.8593 42.4104 25.2135L41.9032 22.5955C43.2087 22.3425 44.4088 21.7049 45.3491 20.7646L47.2348 22.6502Z" fill="#ED243F"/>
<path d="M26.2764 25.228C24.857 25.228 20.8271 23.9331 19.1602 21.2843C19.0596 21.1246 18.8141 21.1459 18.7718 21.3298C18.2236 23.7173 19.7496 25.7944 20.2096 26.2543C19.6 26.2113 19.2382 26.1666 18.7469 25.9441C18.6562 25.903 18.5503 25.9669 18.552 26.0664C18.5678 26.9886 18.7685 28.703 21.3288 29.5286C20.4578 29.5286 19.9063 29.3623 19.626 29.2453C19.5273 29.2041 19.4043 29.2778 19.4184 29.3838C19.6104 30.8274 21.4285 31.9708 23.1692 31.9708C21.7488 32.8111 20.5276 33.1731 17.6273 33.2107C17.4763 33.2126 17.419 33.412 17.5474 33.4916L17.9125 33.7175C20.4349 35.2789 23.4815 35.7539 26.3595 35.0344C30.6389 33.9645 33.6409 30.1195 33.6409 25.7084V24.1578C33.6409 22.3275 32.1572 20.8438 30.3269 20.8438H29.9586C27.925 20.8438 26.2764 22.4924 26.2764 24.526V25.228Z" fill="#ED243F"/>
<path d="M34.5604 21.3387L31.8464 22.1345L32.1686 25.8513C33.3427 24.8759 34.3874 24.1431 35.1476 22.9423C35.222 22.8247 35.1148 22.6818 34.9795 22.7144L33.4896 23.0729C34.0312 22.6182 34.4155 22.1478 34.7412 21.558C34.8083 21.4365 34.6937 21.2996 34.5604 21.3387Z" fill="#ED243F"/>
<path d="M42 16.6667L42.2815 16.8075C43.8297 17.5816 45.0851 18.8369 45.8592 20.3852L46 20.6667" stroke="#ED243F" stroke-width="2.66667"/>
</g>
<defs>
<clipPath id="clip0">
<rect width="62" height="46" fill="white"/>
</clipPath>
</defs>
</svg>
