<svg width="64" height="64" viewBox="0 0 64 64" fill="none" xmlns="http://www.w3.org/2000/svg">
<path d="M1.14284 13.3336C1.24797 11.8618 2.52825 10.7552 3.99972 10.8642L36.1244 13.2438C36.8925 13.3007 37.5985 13.687 38.0607 14.3032L41.3333 18.6667H21.3333C19.6024 18.6667 17.9181 19.2281 16.5333 20.2667L10.1333 25.0667C8.79037 26.0739 8 27.6546 8 29.3333V37.5309V37.5309C5.55252 37.5309 3.31917 36.1356 2.24588 33.936L1.20344 31.7996C0.415141 30.1841 0.0674471 28.3891 0.19552 26.5961L1.14284 13.3336Z" fill="#ECECEE"/>
<path d="M3.62157 33.7149L2.45585 31.3259C1.73507 29.8487 1.41715 28.2074 1.53426 26.5679L2.47329 13.4216C2.52575 12.687 3.16372 12.1341 3.89823 12.1866L37.1045 14.5585C37.4549 14.5835 37.7558 14.8171 37.8669 15.1504C38.5822 17.2963 41.1006 18.2279 43.0402 17.0642L44.5021 16.187C45.2335 15.7481 46.1833 16.0995 46.453 16.9087L47.3304 19.541C47.9526 21.4076 49.6995 22.6667 51.6671 22.6667C53.1433 22.6667 54.5287 21.9537 55.3868 20.7524L59.9612 14.3483C60.289 13.8894 60.8776 13.698 61.4125 13.8763C62.0215 14.0793 62.3871 14.7006 62.2688 15.3315L61.0543 21.8089C60.8778 22.7503 60.3694 23.597 59.6215 24.1953L58.8016 24.8512C57.6811 25.7476 57.5345 27.3976 58.4794 28.4775C59.1681 29.2646 59.4577 30.3241 59.2649 31.352L59.2353 31.5102C58.9457 33.0545 58.0878 34.4342 56.8309 35.3769L55.8848 36.0864C54.1864 37.3602 53.779 39.7388 54.9566 41.5052L55.6176 42.4967C55.9063 42.9298 56.0944 43.4221 56.168 43.9374L56.7643 48.1118C56.957 49.4603 55.9107 50.6667 54.5485 50.6667C53.5929 50.6667 52.7427 50.06 52.4319 49.1564L51.7291 47.1131C50.8629 44.5945 48.3763 43.0042 45.7267 43.274L40.4201 43.8145C38.8932 43.97 37.4668 44.6476 36.3816 45.7328L35.8313 46.2831C35.1929 46.9215 34.6908 47.683 34.3555 48.5212L32.5276 53.0909L31.7939 52.9074C29.9687 52.4512 28.4341 51.2201 27.5928 49.5374C26.6796 47.7111 24.519 46.8897 22.6232 47.648L21.1258 48.247C20.3555 48.5551 19.4938 48.0925 19.3251 47.2802L18.9006 45.2361C18.6525 44.0417 17.873 43.0258 16.7836 42.4771L7.81092 37.9575C5.98816 37.0394 4.51658 35.5491 3.62157 33.7149Z" stroke="#ED243F" stroke-width="2.66667"/>
<path d="M18.6667 24L12 29.3333L18.6667 34.6667V32H25.3333V26.6667H18.6667V24Z" fill="#ECECEE"/>
<path d="M44 24L50.6667 29.3333L44 34.6667V32H37.3333V26.6667H44V24Z" fill="#ECECEE"/>
<path d="M25.3337 33.3333C26.07 33.3332 26.6668 32.7361 26.6667 31.9997C26.6665 31.2633 26.0694 30.6665 25.333 30.6667L25.3337 33.3333ZM25.333 30.6667L19.9997 30.668L20.0003 33.3346L25.3337 33.3333L25.333 30.6667Z" fill="#ED243F"/>
<path d="M25.3333 28.0013C26.0697 28.0013 26.6667 27.4043 26.6667 26.668C26.6667 25.9316 26.0697 25.3346 25.3333 25.3346L25.3333 28.0013ZM25.3333 25.3346L19.9998 25.3346L19.9998 28.0013L25.3333 28.0013L25.3333 25.3346Z" fill="#ED243F"/>
<path d="M21.3333 32.0013C21.3333 31.2649 20.7364 30.668 20 30.668C19.2636 30.668 18.6667 31.2649 18.6667 32.0013L21.3333 32.0013ZM18.6667 26.668C18.6667 27.4043 19.2636 28.0013 20 28.0013C20.7364 28.0013 21.3333 27.4043 21.3333 26.668L18.6667 26.668ZM18.735 23.5702L19.51 24.6552L18.735 23.5702ZM11.2743 29.7673L10.4993 30.8523L11.2743 29.7673ZM19.51 34.0115L12.0492 28.6823L10.4993 30.8523L17.96 36.1814L19.51 34.0115ZM12.0492 29.9843L19.51 24.6552L17.96 22.4853L10.4993 27.8144L12.0492 29.9843ZM21.3333 34.4454L21.3333 32.0013L18.6667 32.0013L18.6667 34.4454L21.3333 34.4454ZM18.6667 24.2212L18.6667 26.668L21.3333 26.668L21.3333 24.2212L18.6667 24.2212ZM19.51 24.6552C19.157 24.9073 18.6667 24.655 18.6667 24.2212L21.3333 24.2212C21.3333 22.486 19.372 21.4767 17.96 22.4853L19.51 24.6552ZM12.0492 28.6823C12.4959 29.0014 12.4959 29.6653 12.0492 29.9843L10.4993 27.8144C9.45702 28.5588 9.45703 30.1078 10.4993 30.8523L12.0492 28.6823ZM17.96 36.1814C19.372 37.19 21.3333 36.1806 21.3333 34.4454L18.6667 34.4454C18.6667 34.0116 19.157 33.7593 19.51 34.0115L17.96 36.1814Z" fill="#ED243F"/>
<path d="M37.333 33.3333C36.5966 33.3332 35.9998 32.7361 36 31.9997C36.0002 31.2633 36.5973 30.6665 37.3337 30.6667L37.333 33.3333ZM37.3337 30.6667L42.667 30.668L42.6663 33.3346L37.333 33.3333L37.3337 30.6667Z" fill="#ED243F"/>
<path d="M37.3333 28.0013C36.597 28.0013 36 27.4043 36 26.668C36 25.9316 36.597 25.3346 37.3333 25.3346L37.3333 28.0013ZM37.3333 25.3346L42.6668 25.3346L42.6668 28.0013L37.3333 28.0013L37.3333 25.3346Z" fill="#ED243F"/>
<path d="M41.3333 32.0013C41.3333 31.2649 41.9303 30.668 42.6667 30.668C43.403 30.668 44 31.2649 44 32.0013L41.3333 32.0013ZM44 26.668C44 27.4043 43.403 28.0013 42.6667 28.0013C41.9303 28.0013 41.3333 27.4043 41.3333 26.668L44 26.668ZM43.9317 23.5702L43.1567 24.6552L43.9317 23.5702ZM51.3924 29.7673L52.1674 30.8523L51.3924 29.7673ZM43.1567 34.0115L50.6174 28.6823L52.1674 30.8523L44.7066 36.1814L43.1567 34.0115ZM50.6174 29.9843L43.1567 24.6552L44.7066 22.4853L52.1674 27.8144L50.6174 29.9843ZM41.3333 34.4454L41.3333 32.0013L44 32.0013L44 34.4454L41.3333 34.4454ZM44 24.2212L44 26.668L41.3333 26.668L41.3333 24.2212L44 24.2212ZM43.1567 24.6552C43.5097 24.9073 44 24.655 44 24.2212L41.3333 24.2212C41.3333 22.486 43.2947 21.4767 44.7066 22.4853L43.1567 24.6552ZM50.6174 28.6823C50.1708 29.0014 50.1707 29.6653 50.6174 29.9843L52.1674 27.8144C53.2097 28.5588 53.2096 30.1078 52.1674 30.8523L50.6174 28.6823ZM44.7066 36.1814C43.2947 37.19 41.3333 36.1806 41.3333 34.4454L44 34.4454C44 34.0116 43.5097 33.7593 43.1567 34.0115L44.7066 36.1814Z" fill="#ED243F"/>
</svg>
