<svg width="64" height="64" viewBox="0 0 64 64" fill="none" xmlns="http://www.w3.org/2000/svg">
<path d="M48 20L38.6667 28V45.3333L48 36V20Z" fill="#E8E8E8"/>
<path d="M16 42.6667V29.1046C16 28.3973 16.281 27.719 16.781 27.219L23.219 20.781C23.719 20.281 24.3973 20 25.1046 20H46.6667C47.403 20 48 20.597 48 21.3333V34.8954C48 35.6027 47.719 36.281 47.219 36.781L40.781 43.219C40.281 43.719 39.6027 44 38.8954 44H17.3333C16.597 44 16 43.403 16 42.6667Z" stroke="#ED243F" stroke-width="2.66667"/>
<path d="M17.3333 28H38.6666M38.6666 28V44M38.6666 28L46.6666 21.3333" stroke="#ED243F" stroke-width="2.66667"/>
<path d="M54.6667 26.6667L60.8128 31.5835C61.0797 31.797 61.0797 32.203 60.8128 32.4165L54.6667 37.3333" stroke="#ED243F" stroke-width="2.66667" stroke-linecap="round"/>
<path d="M9.33331 26.6667L3.18723 31.5835C2.92034 31.797 2.92034 32.203 3.18723 32.4165L9.33331 37.3333" stroke="#ED243F" stroke-width="2.66667" stroke-linecap="round"/>
<path d="M38.6667 53.3333L33.7498 59.4794C33.5363 59.7463 33.1304 59.7463 32.9169 59.4794L28 53.3333" stroke="#ED243F" stroke-width="2.66667" stroke-linecap="round"/>
<path d="M38.6667 10.6667L33.7498 4.52058C33.5363 4.2537 33.1304 4.2537 32.9169 4.52058L28 10.6667" stroke="#ED243F" stroke-width="2.66667" stroke-linecap="round"/>
<path d="M29.3333 38.6667C29.3333 37.9303 29.9303 37.3333 30.6666 37.3333H33.3333C34.0697 37.3333 34.6666 37.9303 34.6666 38.6667V38.6667C34.6666 39.4031 34.0697 40 33.3333 40H30.6666C29.9303 40 29.3333 39.4031 29.3333 38.6667V38.6667Z" fill="#ED243F"/>
</svg>
