<svg xmlns="http://www.w3.org/2000/svg" viewBox="0 0 269.45 269.44"><defs><style>.cls-1{isolation:isolate;}.cls-2{fill:url(#radial-gradient);}.cls-3{mix-blend-mode:multiply;}.cls-4{fill:url(#radial-gradient-2);}.cls-5{fill:url(#radial-gradient-3);}.cls-6{mix-blend-mode:overlay;}.cls-7{fill:url(#radial-gradient-4);}.cls-8{opacity:0.12;}.cls-9{fill:url(#radial-gradient-5);}.cls-10{fill:#d1d1d1;}</style><radialGradient id="radial-gradient" cx="134.72" cy="134.72" r="194.94" gradientUnits="userSpaceOnUse"><stop offset="0" stop-color="#8a888a" stop-opacity="0.63"/><stop offset="0.13" stop-color="#b4bac4"/><stop offset="0.18" stop-color="#b4bac4"/><stop offset="0.24" stop-color="#b5bac5"/><stop offset="0.31" stop-color="#8e9098"/><stop offset="0.4" stop-color="#8e9098"/><stop offset="0.47" stop-color="#666"/><stop offset="0.48" stop-color="#6c6d6d"/><stop offset="0.51" stop-color="#7e7f80"/><stop offset="0.53" stop-color="#9b9da0"/><stop offset="0.56" stop-color="#c3c6cc"/><stop offset="0.58" stop-color="#e2e6ee"/><stop offset="0.59" stop-color="#e2e6ee"/><stop offset="0.61" stop-color="#c8ccd3"/><stop offset="0.64" stop-color="#a2a5ab"/><stop offset="0.66" stop-color="#93969c"/><stop offset="0.68" stop-color="#93969c"/><stop offset="0.7" stop-color="#9ea2a9"/><stop offset="0.75" stop-color="#bbc0ca"/><stop offset="0.75" stop-color="#bcc1cb"/><stop offset="1" stop-color="#c5c9d1"/></radialGradient><radialGradient id="radial-gradient-2" cx="134.72" cy="134.72" r="150.24" gradientUnits="userSpaceOnUse"><stop offset="0" stop-color="#fff" stop-opacity="0"/><stop offset="0.86" stop-color="#888" stop-opacity="0.47"/><stop offset="1"/></radialGradient><radialGradient id="radial-gradient-3" cx="134.72" cy="134.72" r="462.43" gradientUnits="userSpaceOnUse"><stop offset="0.05"/><stop offset="0.19" stop-color="#888" stop-opacity="0.47"/><stop offset="1" stop-color="#fff" stop-opacity="0"/></radialGradient><radialGradient id="radial-gradient-4" cx="134.72" cy="134.72" r="186.51" gradientUnits="userSpaceOnUse"><stop offset="0.04" stop-color="#e8ecf3" stop-opacity="0"/><stop offset="0.25" stop-color="#e8ecf3" stop-opacity="0.01"/><stop offset="0.32" stop-color="#e9edf3" stop-opacity="0.03"/><stop offset="0.37" stop-color="#eaeef4" stop-opacity="0.08"/><stop offset="0.42" stop-color="#ebeff5" stop-opacity="0.15"/><stop offset="0.45" stop-color="#edf0f6" stop-opacity="0.23"/><stop offset="0.49" stop-color="#f0f2f7" stop-opacity="0.34"/><stop offset="0.52" stop-color="#f3f5f9" stop-opacity="0.47"/><stop offset="0.54" stop-color="#f6f8fa" stop-opacity="0.61"/><stop offset="0.57" stop-color="#fafbfc" stop-opacity="0.78"/><stop offset="0.59" stop-color="#fefeff" stop-opacity="0.96"/><stop offset="0.59" stop-color="#fff"/><stop offset="0.6" stop-color="#fdfdfd" stop-opacity="0.96"/><stop offset="0.61" stop-color="#f2f3f5" stop-opacity="0.78"/><stop offset="0.63" stop-color="#e9eaed" stop-opacity="0.61"/><stop offset="0.65" stop-color="#e0e2e6" stop-opacity="0.47"/><stop offset="0.67" stop-color="#d9dbe1" stop-opacity="0.34"/><stop offset="0.7" stop-color="#d3d6dc" stop-opacity="0.23"/><stop offset="0.72" stop-color="#ced1d8" stop-opacity="0.15"/><stop offset="0.76" stop-color="#cacdd5" stop-opacity="0.08"/><stop offset="0.79" stop-color="#c7cbd3" stop-opacity="0.03"/><stop offset="0.85" stop-color="#c5c9d1" stop-opacity="0.01"/><stop offset="1" stop-color="#c5c9d1" stop-opacity="0"/></radialGradient><radialGradient id="radial-gradient-5" cx="134.72" cy="134.72" r="134.5" gradientUnits="userSpaceOnUse"><stop offset="0" stop-color="#36363d"/><stop offset="0.15" stop-color="#39393f"/><stop offset="0.23" stop-color="#414147"/><stop offset="0.3" stop-color="#4f4f55"/><stop offset="0.37" stop-color="#646468"/><stop offset="0.43" stop-color="#7e7e81"/><stop offset="0.48" stop-color="#9e9e9f"/><stop offset="0.5" stop-color="#acacad"/><stop offset="0.5" stop-color="#aaaaab"/><stop offset="0.55" stop-color="#858587"/><stop offset="0.6" stop-color="#656569"/><stop offset="0.65" stop-color="#4a4a50"/><stop offset="0.71" stop-color="#36363c"/><stop offset="0.78" stop-color="#28282e"/><stop offset="0.86" stop-color="#202026"/><stop offset="1" stop-color="#1d1d24"/></radialGradient></defs><title>1</title><g class="cls-1"><g id="Layer_1" data-name="Layer 1"><path class="cls-2" d="M134.72.22a134.5,134.5,0,1,0,134.5,134.5A134.5,134.5,0,0,0,134.72.22Zm0,218.5a84,84,0,1,1,84-84A84,84,0,0,1,134.72,218.72Z"/><g class="cls-3"><path class="cls-4" d="M134.72.22a134.5,134.5,0,1,0,134.5,134.5A134.5,134.5,0,0,0,134.72.22Zm0,218.5a84,84,0,1,1,84-84A84,84,0,0,1,134.72,218.72Z"/></g><g class="cls-3"><path class="cls-5" d="M134.72.22a134.5,134.5,0,1,0,134.5,134.5A134.5,134.5,0,0,0,134.72.22Zm0,218.5a84,84,0,1,1,84-84A84,84,0,0,1,134.72,218.72Z"/></g><g class="cls-6"><path class="cls-7" d="M134.72.22a134.5,134.5,0,1,0,134.5,134.5A134.5,134.5,0,0,0,134.72.22Zm0,218.5a84,84,0,1,1,84-84A84,84,0,0,1,134.72,218.72Z"/></g><g class="cls-8"><path class="cls-9" d="M134.72,2.22a132.5,132.5,0,0,1,93.69,226.19A132.5,132.5,0,1,1,41,41,131.62,131.62,0,0,1,134.72,2.22m0-2a134.5,134.5,0,1,0,134.5,134.5A134.5,134.5,0,0,0,134.72.22Z"/></g><circle class="cls-10" cx="134.72" cy="134.72" r="84"/></g></g></svg>