<svg width="34" height="34" viewBox="0 0 34 34" fill="none" xmlns="http://www.w3.org/2000/svg">
<path d="M22.6814 2.83801H11.2489C9.01502 2.84064 6.87343 3.7293 5.29397 5.30901C3.71452 6.88873 2.82622 9.03048 2.82397 11.2643L2.82397 22.6968C2.8266 24.9307 3.71526 27.0723 5.29498 28.6518C6.87469 30.2312 9.01644 31.1195 11.2503 31.1218H22.6828C24.9167 31.1191 27.0583 30.2305 28.6377 28.6508C30.2172 27.071 31.1055 24.9293 31.1077 22.6954V11.2629C31.1051 9.02906 30.2164 6.88746 28.6367 5.30801C27.057 3.72856 24.9153 2.84026 22.6814 2.83801V2.83801ZM28.2631 22.6954C28.2631 23.4284 28.1187 24.1542 27.8382 24.8314C27.5577 25.5086 27.1465 26.124 26.6282 26.6423C26.1099 27.1606 25.4946 27.5717 24.8174 27.8522C24.1402 28.1327 23.4144 28.2771 22.6814 28.2771H11.2489C9.76879 28.2767 8.34943 27.6885 7.30297 26.6418C6.25651 25.595 5.66864 24.1755 5.66864 22.6954V11.2629C5.66902 9.78282 6.25725 8.36347 7.30397 7.31701C8.3507 6.27055 9.7702 5.68268 11.2503 5.68268H22.6828C24.1629 5.68305 25.5823 6.27129 26.6287 7.31801C27.6752 8.36474 28.2631 9.78424 28.2631 11.2643V22.6968V22.6954Z" fill="#EE2D47"/>
<path d="M16.9764 9.66132C15.0376 9.66431 13.1791 10.4359 11.8083 11.807C10.4375 13.1781 9.6662 15.0368 9.66357 16.9756C9.66582 18.9149 10.4371 20.7741 11.8083 22.1455C13.1794 23.517 15.0385 24.2886 16.9778 24.2912C18.9174 24.289 20.7768 23.5175 22.1483 22.146C23.5198 20.7746 24.2912 18.9151 24.2935 16.9756C24.2905 15.0363 23.5185 13.1773 22.1468 11.8064C20.7751 10.4355 18.9157 9.66461 16.9764 9.66273V9.66132ZM16.9764 21.4466C15.791 21.4466 14.6541 20.9757 13.8159 20.1375C12.9777 19.2992 12.5068 18.1624 12.5068 16.977C12.5068 15.7916 12.9777 14.6547 13.8159 13.8165C14.6541 12.9783 15.791 12.5074 16.9764 12.5074C18.1618 12.5074 19.2987 12.9783 20.1369 13.8165C20.9751 14.6547 21.446 15.7916 21.446 16.977C21.446 18.1624 20.9751 19.2992 20.1369 20.1375C19.2987 20.9757 18.1618 21.4466 16.9764 21.4466Z" fill="#EE2D47"/>
<path d="M24.2972 11.4735C25.265 11.4735 26.0496 10.6889 26.0496 9.7211C26.0496 8.75327 25.265 7.96869 24.2972 7.96869C23.3294 7.96869 22.5448 8.75327 22.5448 9.7211C22.5448 10.6889 23.3294 11.4735 24.2972 11.4735Z" fill="#EE2D47"/>
</svg>
