<svg width="34" height="34" xmlns="http://www.w3.org/2000/svg">
  <path id="svg_1" fill="#ee2d47" d="m22.6814,2.83801l-11.4325,0c-2.23388,0.00263 -4.37547,0.89129 -5.95493,2.471c-1.57945,1.57972 -2.46775,3.72147 -2.47,5.95529l0,11.4325c0.00263,2.2339 0.89129,4.3755 2.47101,5.955c1.57971,1.5794 3.72146,2.4677 5.95532,2.47l11.4325,0c2.2339,-0.0027 4.3755,-0.8913 5.9549,-2.471c1.5795,-1.5798 2.4678,-3.7215 2.47,-5.9554l0,-11.4325c-0.0026,-2.23384 -0.8913,-4.37544 -2.471,-5.95489c-1.5797,-1.57945 -3.7214,-2.46775 -5.9553,-2.47l0,0zm5.5817,19.85739c0,0.733 -0.1444,1.4588 -0.4249,2.136c-0.2805,0.6772 -0.6917,1.2926 -1.21,1.8109c-0.5183,0.5183 -1.1336,0.9294 -1.8108,1.2099c-0.6772,0.2805 -1.403,0.4249 -2.136,0.4249l-11.4325,0c-1.48011,-0.0004 -2.89947,-0.5886 -3.94593,-1.6353c-1.04646,-1.0468 -1.63433,-2.4663 -1.63433,-3.9464l0,-11.4325c0.00038,-1.48008 0.58861,-2.89943 1.63533,-3.94589c1.04673,-1.04646 2.46623,-1.63433 3.94633,-1.63433l11.4325,0c1.4801,0.00037 2.8995,0.58861 3.9459,1.63533c1.0465,1.04673 1.6344,2.46623 1.6344,3.94629l0,11.4325l0,-0.0014z"/>
  <path id="svg_2" fill="#ee2d47" d="m16.9764,9.66132c-1.9388,0.00299 -3.7973,0.77458 -5.1681,2.14568c-1.3708,1.3711 -2.1421,3.2298 -2.14473,5.1686c0.00225,1.9393 0.77353,3.7985 2.14473,5.1699c1.3711,1.3715 3.2302,2.1431 5.1695,2.1457c1.9396,-0.0022 3.799,-0.7737 5.1705,-2.1452c1.3715,-1.3714 2.1429,-3.2309 2.1452,-5.1704c-0.003,-1.9393 -0.775,-3.7983 -2.1467,-5.1692c-1.3717,-1.3709 -3.2311,-2.14179 -5.1704,-2.14367l0,-0.00141zm0,11.78528c-1.1854,0 -2.3223,-0.4709 -3.1605,-1.3091c-0.8382,-0.8383 -1.3091,-1.9751 -1.3091,-3.1605c0,-1.1854 0.4709,-2.3223 1.3091,-3.1605c0.8382,-0.8382 1.9751,-1.3091 3.1605,-1.3091c1.1854,0 2.3223,0.4709 3.1605,1.3091c0.8382,0.8382 1.3091,1.9751 1.3091,3.1605c0,1.1854 -0.4709,2.3222 -1.3091,3.1605c-0.8382,0.8382 -1.9751,1.3091 -3.1605,1.3091z"/>
  <path id="svg_3" fill="#ee2d47" d="m24.2972,11.4735c0.9678,0 1.7524,-0.7846 1.7524,-1.7524c0,-0.96783 -0.7846,-1.75241 -1.7524,-1.75241c-0.9678,0 -1.7524,0.78458 -1.7524,1.75241c0,0.9678 0.7846,1.7524 1.7524,1.7524z"/>
</svg>