<svg width="21" height="16" viewBox="0 0 21 16" fill="none" xmlns="http://www.w3.org/2000/svg">
<path d="M18.998 0H2.99805C1.89505 0 0.998047 0.897 0.998047 2V14C0.998047 15.103 1.89505 16 2.99805 16H18.998C20.101 16 20.998 15.103 20.998 14V2C20.998 0.897 20.101 0 18.998 0ZM5.49805 3C6.32705 3 6.99805 3.672 6.99805 4.5C6.99805 5.328 6.32705 6 5.49805 6C4.66905 6 3.99805 5.328 3.99805 4.5C3.99805 3.672 4.66905 3 5.49805 3ZM10.998 13H7.99805H3.99805L7.99805 8L9.49805 10L12.498 6L17.998 13H10.998Z" fill="black" fill-opacity="0.75"/>
</svg>
