<svg width="26" height="26" viewBox="0 0 26 26" fill="none" xmlns="http://www.w3.org/2000/svg">
<path d="M24.6943 13L25.9364 10.0507C26.0801 9.7089 25.9745 9.31281 25.6789 9.08836L23.1302 7.1521L22.7265 3.97678C22.6798 3.60964 22.3904 3.32019 22.0232 3.27347L18.8479 2.86976L16.9121 0.321081C16.6877 0.0260459 16.2916 -0.0800857 15.9498 0.0636235L13 1.30572L10.0507 0.0636235C9.7089 -0.0800857 9.31281 0.025538 9.08836 0.321081L7.1521 2.86976L3.97678 3.27347C3.60964 3.32019 3.32019 3.60964 3.27347 3.97678L2.86976 7.1521L0.321081 9.08785C0.025538 9.3123 -0.0800857 9.70788 0.0636235 10.0501L1.30572 13L0.0636235 15.9493C-0.0800857 16.2911 0.025538 16.6872 0.321081 16.9116L2.86976 18.8479L3.27347 22.0232C3.32019 22.3904 3.60964 22.6798 3.97678 22.7265L7.1521 23.1302L9.08785 25.6789C9.24527 25.8861 9.48699 25.9998 9.7348 25.9998C9.96336 25.9998 9.8225 26.0322 13 24.6943L15.9493 25.9364C16.2911 26.0801 16.6872 25.9745 16.9116 25.6789L18.8479 23.1302L22.0232 22.7265C22.3904 22.6798 22.6798 22.3904 22.7265 22.0232L23.1302 18.8479L25.6789 16.9121C25.9745 16.6877 26.0801 16.2921 25.9364 15.9498L24.6943 13ZM6.09383 13.8125C4.9736 13.8125 4.0626 12.9015 4.0626 11.7813C4.0626 10.661 4.9736 9.75003 6.09383 9.75003H7.31256C7.76146 9.75003 8.12505 10.1136 8.12505 10.5625C8.12505 11.0114 7.76146 11.375 7.31256 11.375H6.09383C5.86988 11.375 5.68758 11.5573 5.68758 11.7813C5.68758 12.0052 5.86988 12.1875 6.09383 12.1875C7.21405 12.1875 8.12505 13.0985 8.12505 14.2187C8.12505 15.339 7.21405 16.25 6.09383 16.25H4.87509C4.42619 16.25 4.0626 15.8864 4.0626 15.4375C4.0626 14.9886 4.42619 14.625 4.87509 14.625H6.09383C6.31777 14.625 6.50007 14.4427 6.50007 14.2187C6.50007 13.9948 6.31777 13.8125 6.09383 13.8125ZM19.3196 7.82951C19.0035 8.14572 18.489 8.14704 18.1705 7.82951C15.3197 4.97818 10.6803 4.97818 7.82951 7.82951C7.51213 8.14689 6.99772 8.14689 6.68034 7.82951C6.36296 7.51213 6.36296 6.99772 6.68034 6.68034C10.1649 3.19577 15.8351 3.19577 19.3196 6.68034C19.637 6.99772 19.637 7.51213 19.3196 7.82951ZM16.6562 14.625C17.1051 14.625 17.4687 14.9886 17.4687 15.4375C17.4687 15.8864 17.1051 16.25 16.6562 16.25H14.625C14.1761 16.25 13.8125 15.8864 13.8125 15.4375V10.5625C13.8125 10.1136 14.1761 9.75003 14.625 9.75003C15.0739 9.75003 15.4375 10.1136 15.4375 10.5625V14.625H16.6562ZM10.5625 14.2187V15.4375C10.5625 15.8864 10.1989 16.25 9.75003 16.25C9.30113 16.25 8.93754 15.8864 8.93754 15.4375V11.7813C8.93754 10.661 9.84855 9.75003 10.9688 9.75003C12.089 9.75003 13 10.661 13 11.7813V15.4375C13 15.8864 12.6364 16.25 12.1875 16.25C11.7386 16.25 11.375 15.8864 11.375 15.4375V14.2187H10.5625ZM6.68034 18.1705C6.99772 17.8531 7.51213 17.8531 7.82951 18.1705C10.6803 21.0218 15.3197 21.0218 18.1705 18.1705C18.4879 17.8531 19.0023 17.8531 19.3196 18.1705C19.637 18.4879 19.637 19.0023 19.3196 19.3196C15.8346 22.8047 10.165 22.8043 6.68034 19.3196C6.36296 19.0023 6.36296 18.4879 6.68034 18.1705ZM19.0937 16.25C18.6448 16.25 18.2812 15.8864 18.2812 15.4375V10.5625C18.2812 10.1136 18.6448 9.75003 19.0937 9.75003H21.1249C21.5738 9.75003 21.9374 10.1136 21.9374 10.5625C21.9374 11.0114 21.5738 11.375 21.1249 11.375H19.9062V12.1875H20.3124C20.7613 12.1875 21.1249 12.5511 21.1249 13C21.1249 13.4489 20.7613 13.8125 20.3124 13.8125H19.9062V14.625H21.1249C21.5738 14.625 21.9374 14.9886 21.9374 15.4375C21.9374 15.8864 21.5738 16.25 21.1249 16.25H19.0937Z" fill="#D5003A"/>
<ellipse cx="12.7715" cy="12.9238" rx="9.72461" ry="9.67383" fill="#D5003A"/>
<path d="M18.577 14.5947V9.49535L12.5229 6L6.46875 9.49535V16.4861L12.5229 19.9814L14.1334 19.0516C14.7055 19.6364 15.5027 20 16.3835 20C18.1196 20 19.5322 18.5875 19.5322 16.8513C19.5322 15.9672 19.1658 15.1672 18.577 14.5947ZM12.5229 6.94845L17.3449 9.73245L15.3446 10.8873L10.5226 8.10334L12.5229 6.94845ZM12.1122 18.7958L7.29016 16.0118V10.4438L12.1122 13.2278V18.7958ZM7.70086 9.73245L9.70116 8.57756L14.5232 11.3616L12.5229 12.5165L7.70086 9.73245ZM12.9336 18.7958V13.2278L17.7556 10.4438V14.0177C17.3406 13.8159 16.875 13.7026 16.3835 13.7026C14.6473 13.7026 13.2347 15.1151 13.2347 16.8513C13.2347 17.4097 13.381 17.9345 13.637 18.3897L12.9336 18.7958ZM16.3835 19.1786C15.1002 19.1786 14.0561 18.1346 14.0561 16.8513C14.0561 15.568 15.1002 14.524 16.3835 14.524C17.6667 14.524 18.7108 15.568 18.7108 16.8513C18.7108 18.1346 17.6668 19.1786 16.3835 19.1786Z" fill="white"/>
<path d="M17.3552 15.6582L16.0103 17.0105L15.4079 16.4142L14.8301 16.9979L16.0149 18.1708L17.9376 16.2374L17.3552 15.6582Z" fill="white"/>
</svg>
