<svg id="Layer_1" data-name="Layer 1" xmlns="http://www.w3.org/2000/svg" viewBox="0 0 245.97 44.99"><defs><style>.cls-1{fill:#359999;}.cls-2{fill:#dcdce6;}.cls-3{fill:#fefefe;}</style></defs><path class="cls-1" d="M45.09,45H.57c-.48,0-.58-.1-.58-.59Q0,22.2,0,0L44.26,0c.68,0,.84.16.84.84Q45.07,22.89,45.09,45ZM24,29.5l0-.16.71-.5c4.24-2.91,8.35-6,12.41-9.13.21-.16.49-.36.39-.64s-.4-.09-.61-.09c-3.3,0-6.61,0-9.92,0a.72.72,0,0,1-.84-.6c-1-3.25-2-6.49-3.06-9.73C23,8.41,23,8.11,22.72,8c-1.13,3.45-2.28,6.88-3.38,10.32-.17.53-.37.73-1,.72-3.32,0-6.65,0-10,0H7.65a1.2,1.2,0,0,0,.48.74C10.89,21.83,13.64,24,16.41,26a.72.72,0,0,1,.3,1Q15,31.77,13.25,36.54c-.07.21-.27.42-.1.7l.17-.11c2.95-2.18,5.91-4.36,8.84-6.56a.6.6,0,0,1,.91,0c.46.39,1,.72,1.46,1.08l7.56,5.6c.11-.32-.07-.56-.16-.8-.74-2.09-1.5-4.17-2.24-6.26-.37-1-.37-1-1.45-1l-.47.05Z" transform="translate(0.01 0.02)"/><path class="cls-1" d="M95.3,45H50.22q0-22.06,0-44.13c0-.67.14-.85.84-.85Q72.76,0,94.48,0c.7,0,.84.18.84.85Q95.29,22.89,95.3,45ZM63.2,37.33c.22-.14.3-.17.36-.22l8.85-6.56c.3-.23.47-.29.8,0,1.55,1.18,3.13,2.33,4.69,3.49l4.41,3.26a1.12,1.12,0,0,0-.15-.77c-.69-2-1.41-3.93-2.11-5.89-.53-1.46-.52-1.44-2.1-1.32-1.24.1-2.48.15-3.72.22a.81.81,0,0,1,.32-.41Q81,24.64,87.18,19.81c.27-.21.55-.38.56-.83H87c-3.29,0-6.57,0-9.85,0a.69.69,0,0,1-.8-.57c-.95-3.11-1.94-6.2-2.92-9.29A4.42,4.42,0,0,0,73,7.89c-1.15,3.51-2.3,7-3.41,10.42-.16.5-.35.69-.91.69-3.33,0-6.66,0-10,0h-.73a.87.87,0,0,0,.46.76c2.75,2.11,5.51,4.23,8.28,6.32a.7.7,0,0,1,.28.94c-.84,2.27-1.66,4.54-2.48,6.82C64.05,34.94,63.65,36.06,63.2,37.33Z" transform="translate(0.01 0.02)"/><path class="cls-1" d="M145.52,45H100.43q0-22.06,0-44.13c0-.67.14-.85.83-.85Q123,0,144.7,0c.69,0,.84.18.84.85Q145.5,22.89,145.52,45Zm-12.91-7.63a3.25,3.25,0,0,0-.13-.54c-.85-2.36-1.71-4.72-2.54-7.09a.63.63,0,0,0-.79-.49c-1.08.08-2.15.15-3.23.21l-1.68.08c.27-.22.37-.31.48-.38q6.48-4.47,12.68-9.33c.27-.2.55-.38.54-.82h-.75c-3.26,0-6.52,0-9.78,0a.77.77,0,0,1-.88-.66q-1.48-4.84-3-9.67c-.08-.24-.06-.54-.34-.73-1.14,3.49-2.29,7-3.41,10.45a.74.74,0,0,1-.84.61c-3.35,0-6.7,0-10.05,0h-.48c-.28,0-.31.14-.17.33a1.69,1.69,0,0,0,.35.41c2.75,2.11,5.51,4.23,8.28,6.32a.72.72,0,0,1,.32,1c-1,2.77-2,5.54-3,8.33a8.14,8.14,0,0,0-.61,1.92l.22-.12c3-2.19,5.91-4.36,8.85-6.57a.62.62,0,0,1,.91,0C126.48,32.8,129.49,35,132.61,37.33Z" transform="translate(0.01 0.02)"/><path class="cls-1" d="M195.74,45H150.65q0-22.06,0-44.13c0-.67.15-.85.84-.85q21.72,0,43.45,0c.69,0,.83.18.83.85Q195.72,22.89,195.74,45Zm-32-7.7.22-.13c3-2.19,5.94-4.4,8.9-6.6a.53.53,0,0,1,.8,0c1.91,1.44,3.84,2.86,5.77,4.29l3.34,2.46a1.5,1.5,0,0,0,0-.3c-.89-2.47-1.79-4.93-2.66-7.4-.13-.39-.37-.38-.67-.37l-3.3.22-1.68.08a6.25,6.25,0,0,1,.49-.39q6.48-4.47,12.68-9.32c.27-.21.54-.39.54-.82h-.76c-3.25,0-6.49,0-9.72,0a.85.85,0,0,1-1-.72c-1-3.23-2-6.45-3-9.68-.07-.21-.05-.49-.33-.65-1.14,3.49-2.29,7-3.41,10.45a.72.72,0,0,1-.84.6c-3.35,0-6.7,0-10.05,0h-.48c-.28,0-.3.13-.17.33a2,2,0,0,0,.36.4c2.75,2.11,5.5,4.23,8.28,6.32a.71.71,0,0,1,.31,1c-1,2.77-2,5.54-3,8.33a7.69,7.69,0,0,0-.6,1.92Z" transform="translate(0.01 0.02)"/><path class="cls-1" d="M236.37,45h-35.5V.7c0-.38-.08-.71.54-.71q17.46,0,34.94,0V19c-2.88,0-5.76,0-8.64,0a.63.63,0,0,1-.7-.52q-1.51-4.9-3.08-9.8c-.08-.25-.08-.54-.34-.74-1.15,3.49-2.3,7-3.42,10.45a.72.72,0,0,1-.83.61c-3.35,0-6.7,0-10.05,0a1.5,1.5,0,0,0-.75.07,1.08,1.08,0,0,0,.48.69c2.78,2.12,5.55,4.25,8.34,6.35.38.29.35.54.22.91-.83,2.27-1.66,4.55-2.48,6.82-.41,1.12-.8,2.25-1.25,3.51a4.16,4.16,0,0,0,.36-.23c2.95-2.18,5.91-4.36,8.85-6.56.3-.22.47-.28.8,0,1.55,1.18,3.12,2.33,4.69,3.49L233,37.26a1.12,1.12,0,0,0-.15-.77c-.7-2-1.42-3.93-2.12-5.89-.52-1.46-.52-1.44-2.1-1.32-1.23.1-2.48.15-3.72.22a1.94,1.94,0,0,1,.6-.61l7.13-5.08c1.27-.91,2.43-2,3.76-2.8Q236.36,33,236.37,45Z" transform="translate(0.01 0.02)"/><path class="cls-2" d="M236.35,0H245c1,0,1,0,1,1V45h-9.59V21l1.5-1.23c.2-.16.52-.31.42-.61s-.42-.18-.65-.19h-1.28Z" transform="translate(0.01 0.02)"/><path class="cls-3" d="M24,29.5l3.75-.22.47,0c1.08-.08,1.08-.08,1.45,1,.74,2.09,1.5,4.18,2.24,6.27.09.24.27.47.16.8l-7.56-5.6c-.49-.36-1-.69-1.46-1.08s-.54-.29-.91,0c-2.93,2.21-5.89,4.39-8.84,6.57a1,1,0,0,1-.17.1c-.16-.27,0-.49.1-.69Q15,31.77,16.71,27a.72.72,0,0,0-.3-1c-2.77-2.08-5.52-4.2-8.28-6.31A1.17,1.17,0,0,1,7.65,19H8.4c3.33,0,6.66,0,10,0a.84.84,0,0,0,1-.72c1.1-3.45,2.25-6.87,3.38-10.33.28.17.26.47.34.7,1,3.24,2.06,6.49,3.06,9.74A.71.71,0,0,0,27,19c3.31,0,6.62,0,9.92,0,.21,0,.54-.12.61.09s-.18.48-.39.64c-4.05,3.15-8.17,6.22-12.41,9.13l-.71.5Z" transform="translate(0.01 0.02)"/><path class="cls-3" d="M63.2,37.33c.45-1.27.85-2.39,1.26-3.51Q65.69,30.4,66.94,27a.7.7,0,0,0-.28-.94c-2.78-2.09-5.53-4.2-8.29-6.31a.91.91,0,0,1-.45-.76h.73c3.33,0,6.65,0,10,0,.57,0,.75-.19.91-.69C70.66,14.85,71.8,11.4,73,7.89a4.32,4.32,0,0,1,.46,1.23c1,3.1,2,6.19,2.93,9.29a.68.68,0,0,0,.79.58c3.29,0,6.57,0,9.86,0h.74c0,.44-.3.62-.56.83Q81,24.64,74.55,29.09a.79.79,0,0,0-.32.4c1.24-.07,2.48-.12,3.72-.21,1.58-.13,1.57-.14,2.1,1.31.7,2,1.42,3.92,2.11,5.89a1.15,1.15,0,0,1,.15.78L77.9,34c-1.56-1.16-3.14-2.3-4.69-3.48-.33-.25-.5-.19-.8,0Q68,33.84,63.56,37.1Z" transform="translate(0.01 0.02)"/><path class="cls-3" d="M132.61,37.33c-3.12-2.31-6.13-4.53-9.12-6.77a.62.62,0,0,0-.91,0c-2.94,2.2-5.89,4.38-8.84,6.57l-.22.12a7.7,7.7,0,0,1,.61-1.92c1-2.79,2-5.56,3-8.33a.71.71,0,0,0-.32-1c-2.77-2.1-5.52-4.21-8.28-6.32a2,2,0,0,1-.35-.41c-.13-.2-.11-.34.18-.33h.47c3.35,0,6.7,0,10.05,0a.72.72,0,0,0,.84-.6c1.12-3.48,2.27-7,3.42-10.45.27.19.26.48.33.73q1.55,4.83,3.05,9.67a.76.76,0,0,0,.87.66c3.26,0,6.53,0,9.79,0H138c0,.44-.27.62-.54.82q-6.19,4.86-12.69,9.32l-.48.39,1.68-.08c1.09-.06,2.17-.13,3.23-.22a.66.66,0,0,1,.8.5c.82,2.37,1.69,4.73,2.53,7.09A4.79,4.79,0,0,1,132.61,37.33Z" transform="translate(0.01 0.02)"/><path class="cls-3" d="M163.74,37.26a7.69,7.69,0,0,1,.6-1.92q1.49-4.17,3-8.33a.72.72,0,0,0-.32-1c-2.77-2.09-5.52-4.21-8.28-6.32a1.65,1.65,0,0,1-.35-.4c-.14-.19-.12-.34.17-.33h.47c3.35,0,6.7,0,10.05,0a.74.74,0,0,0,.85-.6c1.12-3.48,2.27-7,3.41-10.45.27.16.25.44.32.66q1.55,4.83,3,9.67a.84.84,0,0,0,1,.73c3.25,0,6.48,0,9.72,0h.76c0,.43-.27.61-.54.82q-6.19,4.85-12.68,9.32a6.25,6.25,0,0,0-.49.39l1.68-.08,3.3-.21c.3,0,.54,0,.68.36.87,2.47,1.77,4.93,2.66,7.4a1.5,1.5,0,0,1,0,.3l-3.35-2.46c-1.93-1.43-3.86-2.84-5.77-4.29a.54.54,0,0,0-.8,0q-4.44,3.33-8.9,6.6Z" transform="translate(0.01 0.02)"/><path class="cls-3" d="M236.35,19h1.28c.23,0,.56-.1.66.19s-.22.45-.43.61L236.36,21c-1.32.84-2.49,1.89-3.76,2.8q-3.56,2.55-7.12,5.08a1.84,1.84,0,0,0-.6.61c1.24-.07,2.48-.12,3.72-.22,1.58-.12,1.57-.13,2.09,1.32q1.06,2.94,2.12,5.89a1.12,1.12,0,0,1,.15.77L228.55,34c-1.56-1.16-3.14-2.3-4.69-3.49-.32-.25-.5-.19-.8,0q-4.41,3.3-8.85,6.56a3.44,3.44,0,0,1-.36.23l1.25-3.51c.83-2.28,1.65-4.55,2.48-6.82a.66.66,0,0,0-.21-.91c-2.8-2.1-5.57-4.23-8.34-6.35a1.09,1.09,0,0,1-.49-.69,1.5,1.5,0,0,1,.75-.07c3.35,0,6.7,0,10.05,0a.74.74,0,0,0,.84-.61c1.12-3.48,2.27-7,3.41-10.45.27.2.26.49.34.74q1.56,4.89,3.09,9.8a.61.61,0,0,0,.7.52C230.6,19,233.47,19,236.35,19Z" transform="translate(0.01 0.02)"/></svg>