<svg width="62" height="51" viewBox="0 0 62 51" fill="none" xmlns="http://www.w3.org/2000/svg">
<path d="M16.6667 18.6667C16.6667 14.2484 20.2484 10.6667 24.6667 10.6667V10.6667C29.0849 10.6667 32.6667 14.2484 32.6667 18.6667V20H20.6667V36H16.6667V18.6667Z" fill="#ECECEE"/>
<path d="M34 20V37.3333H15.3333V20C15.3333 14.8453 19.512 10.6666 24.6667 10.6666C29.8213 10.6666 34 14.8453 34 20Z" stroke="#ED243F" stroke-width="2.66667"/>
<path d="M46 9.33335C45.2636 9.33335 44.6667 9.93031 44.6667 10.6667C44.6667 11.4031 45.2636 12 46 12V9.33335ZM39.3331 12C40.0695 12 40.6665 11.4031 40.6665 10.6667C40.6665 9.93031 40.0695 9.33335 39.3331 9.33335V12ZM59.3333 18.6667V36H62V18.6667H59.3333ZM59.3333 36H24.6667V38.6667H59.3333V36ZM46 12H52.6667V9.33335H46V12ZM24.8887 12H39.3331V9.33335H24.8887V12ZM59.3333 36L59.3333 36V38.6667C60.8061 38.6667 62 37.4728 62 36H59.3333ZM62 18.6667C62 13.512 57.8213 9.33335 52.6667 9.33335V12C56.3486 12 59.3333 14.9848 59.3333 18.6667H62Z" fill="#ED243F"/>
<path d="M2 36C1.26362 36 0.666667 36.5969 0.666667 37.3333C0.666667 38.0697 1.26362 38.6666 2 38.6666V36ZM2 38.6666H16.6667V36H2V38.6666Z" fill="#ED243F"/>
<path d="M42 1.33331C42 0.596933 41.4031 -2.03848e-05 40.6667 -2.03848e-05C39.9303 -2.03848e-05 39.3333 0.596933 39.3333 1.33331H42ZM39.3333 20C39.3333 20.7364 39.9303 21.3333 40.6667 21.3333C41.4031 21.3333 42 20.7364 42 20H39.3333ZM39.3333 1.33331V20H42V1.33331H39.3333Z" fill="#ED243F"/>
<path d="M40.6667 37.3333H46V48C46 48.7364 45.403 49.3333 44.6667 49.3333H42C41.2636 49.3333 40.6667 48.7364 40.6667 48V37.3333Z" stroke="#ED243F" stroke-width="2.66667"/>
<path d="M40.6667 0H47.3333C48.0697 0 48.6667 0.596954 48.6667 1.33333V5.33333C48.6667 6.06971 48.0697 6.66667 47.3333 6.66667H40.6667V0Z" fill="#ED243F"/>
<path d="M32.6667 20H23.3333C21.8606 20 20.6667 21.1939 20.6667 22.6667V36" stroke="#ED243F" stroke-width="2.66667"/>
<path d="M22 21.3333L34 32" stroke="#ED243F" stroke-width="2.66667"/>
<path d="M42 38.6667H44.6667V42.6667H42V38.6667Z" fill="#ECECEE"/>
</svg>
