<svg width="74" height="63" viewBox="0 0 74 63" fill="none" xmlns="http://www.w3.org/2000/svg">
<path d="M73.6944 19.0926C73.685 18.8676 73.6632 18.6395 73.6038 18.4238C73.5819 18.3457 73.5381 18.2707 73.51 18.1926C73.4444 18.0145 73.385 17.8395 73.2913 17.677C73.2413 17.5926 73.1725 17.5238 73.1131 17.4426C73.0131 17.3019 72.9163 17.1582 72.7944 17.0363C72.7225 16.9676 72.6287 16.9113 72.5506 16.8457C72.4287 16.7457 72.3162 16.6363 72.1756 16.5519C72.1631 16.5426 72.1475 16.5426 72.1319 16.5332C72.1225 16.5269 72.1162 16.5207 72.1069 16.5144L44.0468 0.920321C43.1062 0.395309 41.9624 0.398435 41.0155 0.917197L12.8243 16.5113C12.8149 16.5207 12.8055 16.5332 12.7899 16.5426C12.7805 16.5457 12.768 16.5488 12.7586 16.5551C12.6493 16.6176 12.568 16.7082 12.4649 16.7832C12.3524 16.8676 12.2336 16.9426 12.1336 17.0394C12.0399 17.1363 11.968 17.2488 11.8867 17.3582C11.8024 17.4676 11.7086 17.5645 11.6399 17.6832C11.5586 17.8176 11.5149 17.9707 11.4555 18.1176C11.4117 18.2207 11.3555 18.3176 11.3273 18.4301C11.268 18.6395 11.2492 18.8645 11.2367 19.0864C11.2336 19.1395 11.2148 19.1864 11.2148 19.2426V19.2457V19.2489V44.2494C11.2148 45.3838 11.8305 46.4307 12.8243 46.9808L40.8811 62.5655L40.8843 62.5686C40.8874 62.5686 40.8874 62.5686 40.8905 62.5717L40.953 62.6061C41.0874 62.6811 41.2343 62.7217 41.3749 62.7749C41.4749 62.8155 41.5718 62.8686 41.678 62.8967C41.9312 62.9624 42.1999 62.9999 42.4656 62.9999C42.7312 62.9999 42.9999 62.9624 43.2593 62.8967C43.3625 62.8686 43.4593 62.8155 43.5625 62.7749C43.7031 62.7217 43.85 62.6842 43.9843 62.6061L44.0468 62.5717C44.05 62.5686 44.05 62.5686 44.0531 62.5686L44.0562 62.5655L72.1131 46.9808C73.1006 46.4307 73.7163 45.3838 73.7163 44.2494V19.2489V19.2457V19.2426C73.7163 19.1895 73.6975 19.1457 73.6944 19.0926ZM42.3781 31.3491L20.7713 19.2645L29.4028 14.4894L50.7595 26.6928L42.3781 31.3491ZM42.5281 7.22672L64.1567 19.2489L57.144 23.1458L35.7998 10.9487L42.5281 7.22672ZM17.465 24.5771L39.3405 36.8149V54.5653L17.465 42.4088V24.5771ZM45.5906 54.5653L45.5969 36.818L54.9658 31.5742V41.1244L61.216 37.9993V28.0772L67.4661 24.5802V42.4088L45.5906 54.5653Z" fill="#ED243F" fill-opacity="0.96"/>
<circle cx="14.8838" cy="44.1421" r="14.2666" fill="white"/>
<circle cx="14.8838" cy="44.1421" r="11.7666" stroke="#ED243F" stroke-opacity="0.96" stroke-width="5"/>
<path d="M13.4861 40.4909V38.583C13.486 38.3734 13.316 38.2035 13.1064 38.2036C12.9989 38.2036 12.8965 38.2493 12.8245 38.3291L9.40867 42.1245C9.28375 42.2636 9.27875 42.4729 9.3969 42.6179L12.8128 46.7927C12.9455 46.9549 13.1846 46.9789 13.3469 46.8461C13.4348 46.7742 13.4858 46.6668 13.4861 46.5532V44.662C16.4845 44.7596 18.3556 46.0412 19.199 48.5712C19.2507 48.726 19.3956 48.8303 19.5588 48.8304C19.5792 48.8305 19.5997 48.8288 19.6199 48.8255C19.8035 48.7955 19.9383 48.6369 19.9383 48.4509C19.9383 43.9815 17.2477 40.6982 13.4861 40.4909Z" fill="#ED243F" fill-opacity="0.96"/>
</svg>
