<svg width="64" height="64" viewBox="0 0 64 64" fill="none" xmlns="http://www.w3.org/2000/svg">
<path d="M56 45.3333C56 33.4189 46.0511 24 33.5327 24C25.1428 24 17.6184 28.0986 13.6993 34.5468C12.1512 37.0938 10.6667 42.0974 10.6667 45.3333" stroke="#ECECEE" stroke-width="8" stroke-linecap="round"/>
<path d="M45.3334 48L48 38.6667L34.6667 49.3333L45.3334 48Z" fill="#ECECEE"/>
<path d="M53.3333 48.4626C53.3333 36.2898 44.5548 26.6667 33.5092 26.6667C26.1064 26.6667 19.4672 30.8542 16.0091 37.4422C14.6432 40.0444 13.3333 45.1565 13.3333 48.4626" stroke="#ED243F" stroke-width="2.66667" stroke-linecap="round"/>
<path d="M10.2345 33.3333C14.8453 25.3626 23.4632 20 33.3336 20C48.0612 20 60.0003 31.9391 60.0003 46.6667V46.6667C60.0003 48.1394 58.8064 49.3333 57.3336 49.3333H9.33335C7.8606 49.3333 6.66669 48.1394 6.66669 46.6667V46.6667C6.66669 42.6667 7.32315 40.0204 8.00002 38.6667" stroke="#ED243F" stroke-width="2.66667" stroke-linecap="round"/>
<path d="M47.4984 37.8518C48.0176 37.7053 48.4012 38.3341 48.0334 38.7288L38.5271 48.9278L29.3335 48.9288L29.3334 46.6546C29.3333 44.5084 30.7416 42.6164 32.7975 42.0007V42.0007L47.4984 37.8518Z" fill="#ED243F"/>
<path d="M1.33331 33.3333H10.2467" stroke="#ED243F" stroke-width="2.66667" stroke-linecap="round"/>
<path d="M2.66669 38.6667H8.00002" stroke="#ED243F" stroke-width="2.66667" stroke-linecap="round"/>
<path d="M26.6667 49.3333H28C29.4728 49.3333 30.6667 48.1394 30.6667 46.6667V46.6667" stroke="#ED243F" stroke-width="2.66667"/>
<path d="M41.3333 49.3333V49.3333C39.6235 49.3333 38.6037 47.4278 39.5521 46.0051L40 45.3333" stroke="#ED243F" stroke-width="2.66667"/>
<path fill-rule="evenodd" clip-rule="evenodd" d="M20.8084 18.6667H10.6666C9.93027 18.6667 9.33331 19.2636 9.33331 20C9.33331 20.7364 9.93027 21.3333 10.6666 21.3333H16.0475C17.5444 20.31 19.1367 19.4157 20.8084 18.6667Z" fill="#ED243F"/>
<path fill-rule="evenodd" clip-rule="evenodd" d="M12.6778 24C11.761 24.8359 10.8953 25.7265 10.0857 26.6667H4.00002C3.26364 26.6667 2.66669 26.0697 2.66669 25.3333C2.66669 24.597 3.26364 24 4.00002 24H12.6778Z" fill="#ED243F"/>
</svg>
