<svg width="20" height="20" viewBox="0 0 20 20" fill="none" xmlns="http://www.w3.org/2000/svg">
<path d="M17.2904 9.99999L18.2104 8.40999C18.4404 8.01082 18.3038 7.50166 17.9063 7.27166L16.3146 6.35166V4.51832C16.3146 4.05749 15.9421 3.68499 15.4813 3.68499H13.6488L12.7296 2.09416C12.6188 1.90332 12.4363 1.76332 12.2238 1.70582C12.0104 1.64749 11.7829 1.67832 11.5913 1.78916L9.99961 2.70916L8.40794 1.78832C8.00878 1.55749 7.49961 1.69499 7.26961 2.09332L6.34961 3.68499H4.51711C4.05628 3.68499 3.68378 4.05749 3.68378 4.51832V6.35082L2.09211 7.27082C1.90044 7.38166 1.76128 7.56416 1.70461 7.77749C1.64794 7.99166 1.67794 8.21832 1.78794 8.40999L2.70794 9.99999L1.78794 11.59C1.67711 11.7817 1.64711 12.0092 1.70378 12.2233C1.76044 12.4367 1.89961 12.6192 2.09128 12.7292L3.68294 13.6492V15.4817C3.68294 15.9425 4.05544 16.315 4.51628 16.315H6.34961L7.26961 17.9067C7.38044 18.0975 7.56294 18.2367 7.77628 18.295C7.84711 18.3133 7.91878 18.3233 7.99128 18.3233C8.13628 18.3233 8.28044 18.285 8.40878 18.2108L9.99878 17.2908L11.5904 18.2108C11.7813 18.3217 12.0096 18.3508 12.2229 18.2942C12.4363 18.2375 12.6188 18.0983 12.7288 17.9067L13.6479 16.315H15.4804C15.9413 16.315 16.3138 15.9425 16.3138 15.4817V13.6492L17.9054 12.7292C18.3038 12.4983 18.4404 11.9883 18.2096 11.59L17.2904 9.99999ZM7.91544 5.82499C8.60544 5.82499 9.16544 6.38499 9.16544 7.07499C9.16544 7.76499 8.60544 8.32499 7.91544 8.32499C7.22544 8.32499 6.66544 7.76499 6.66544 7.07499C6.66544 6.38499 7.22544 5.82499 7.91544 5.82499ZM8.16544 13.825L6.83211 12.8258L11.8321 6.15916L13.1654 7.15832L8.16544 13.825ZM12.0821 14.1583C11.3921 14.1583 10.8321 13.5983 10.8321 12.9083C10.8321 12.2183 11.3921 11.6583 12.0821 11.6583C12.7721 11.6583 13.3321 12.2183 13.3321 12.9083C13.3321 13.5983 12.7721 14.1583 12.0821 14.1583Z" fill="#D5003A"/>
</svg>
