<svg width="47" height="53" viewBox="0 0 47 53" fill="none" xmlns="http://www.w3.org/2000/svg">
<path d="M42.6667 46.6667C21.3333 46.6667 13.3333 41.3334 10.6667 38.6667V48L29.3333 50.6667L40 49.3334L42.6667 46.6667Z" fill="#ECECEE"/>
<path d="M2.66667 26.6666H8C8.73638 26.6666 9.33333 27.2636 9.33333 28V49.3333C9.33333 50.0697 8.73638 50.6666 8 50.6666H2.66667C1.93029 50.6666 1.33333 50.0697 1.33333 49.3333V28C1.33333 27.2636 1.93029 26.6666 2.66667 26.6666Z" stroke="#ED243F" stroke-width="2.66667"/>
<path d="M30.6667 17.3333L28 16V16.5687C28 18.8305 27.5204 21.0666 26.593 23.1296L26.2812 23.8229L30.6667 24V17.3333Z" fill="#ECECEE"/>
<path fill-rule="evenodd" clip-rule="evenodd" d="M10.6667 46.6732V30.6667H13.0989C14.81 30.6667 16.451 29.987 17.6609 28.777C20.8239 25.6141 22.8162 21.4688 23.3101 17.023L23.5327 15.0197C23.6394 14.0597 24.4509 13.3334 25.4168 13.3334C26.0827 13.3334 26.6998 13.6827 27.0424 14.2537L27.298 14.6798C28.6298 16.8995 29.3333 19.4394 29.3333 22.0279C29.3333 23.6807 30.5096 25.0994 32.1338 25.4055L41.6807 27.205C42.725 27.4018 43.4814 28.314 43.4814 29.3768C43.4814 29.6029 43.4041 29.8223 43.2622 29.9984L43.2286 30.0401C41.8457 31.7569 41.431 34.0592 42.1282 36.1506L42.2982 36.6607C42.4437 37.0973 42.4437 37.5694 42.2982 38.006L41.8902 39.2301C41.433 40.6015 41.4388 42.085 41.9065 43.4529L42.0287 43.8102C42.1037 44.0297 42.1162 44.2658 42.0646 44.4919C41.8366 45.4921 41.144 46.3228 40.2011 46.7269L38.9677 47.2555C35.7688 48.6264 32.3247 49.3334 28.8444 49.3334H26.3944C24.9776 49.3334 23.5643 49.1934 22.1751 48.9156L11.4486 46.7703C11.1906 46.7187 10.9292 46.6862 10.6667 46.6732ZM8 28H10.6667H13.0989C14.1027 28 15.0654 27.6012 15.7753 26.8914C18.5101 24.1566 20.2327 20.5725 20.6598 16.7286L20.8824 14.7252C21.1391 12.4147 23.0921 10.6667 25.4168 10.6667C27.0194 10.6667 28.5045 11.5075 29.329 12.8817L29.5847 13.3078C31.1651 15.9419 32 18.956 32 22.0279C32 22.3984 32.2637 22.7164 32.6277 22.785L42.1746 24.5844C44.4791 25.0188 46.1481 27.0318 46.1481 29.3768C46.1481 30.2115 45.8626 31.0212 45.3389 31.6712L45.3053 31.7129C44.4918 32.7228 44.2479 34.0771 44.658 35.3073L44.828 35.8174C45.156 36.8014 45.156 37.8653 44.828 38.8493L44.42 40.0733C44.1476 40.8907 44.151 41.7749 44.4297 42.5901L44.5519 42.9474C44.7872 43.6355 44.8262 44.3756 44.6646 45.0846C44.247 46.9164 42.9784 48.4378 41.2516 49.1779L40.0181 49.7065C36.4873 51.2197 32.6859 52 28.8444 52H26.3944C24.802 52 23.2135 51.8427 21.6521 51.5304L10.9256 49.3851C10.8399 49.368 10.7535 49.3551 10.6667 49.3465V49.3327H8V46.6667V30.6667V28Z" fill="#ED243F"/>
<path d="M2.66667 28H8.00001V49.3333H2.66667V28Z" fill="#ECECEE"/>
<path d="M27.8594 25.5079C27.1402 25.6661 26.4289 25.2113 26.2707 24.4921C26.1125 23.773 26.5673 23.0617 27.2865 22.9035L27.8594 25.5079ZM27.8897 24.136L28.1761 25.4382L27.8897 24.136ZM28.1761 25.4382L27.8594 25.5079L27.2865 22.9035L27.6033 22.8338L28.1761 25.4382ZM32.7248 25.5412C31.2387 25.143 29.6787 25.1077 28.1761 25.4382L27.6033 22.8338C29.5231 22.4115 31.5163 22.4567 33.415 22.9654L32.7248 25.5412Z" fill="#ED243F"/>
<path d="M16.9499 4.95053L20 8.00129" stroke="#ED243F" stroke-width="2.66667" stroke-linecap="round"/>
<path d="M33.7376 4.92969L30.6664 8.00025" stroke="#ED243F" stroke-width="2.66667" stroke-linecap="round"/>
<path d="M25.3333 1.33334L25.3333 6.66748" stroke="#ED243F" stroke-width="2.66667" stroke-linecap="round"/>
</svg>
