<svg width="64" height="64" viewBox="0 0 64 64" fill="none" xmlns="http://www.w3.org/2000/svg">
<path d="M10.6667 32L4 37.3333L12 44V40H18.6667V34.6667H12V32H10.6667Z" fill="#ECECEE"/>
<path d="M58.6666 21.3333L37.3333 53.3333H56C57.4727 53.3333 58.6666 52.1394 58.6666 50.6667V21.3333Z" fill="#ECECEE"/>
<path d="M53.3334 13.3333H37.3334V21.3333H58.6667L53.3334 13.3333Z" fill="#ECECEE"/>
<path d="M21.3333 13.3333H37.3333V21.3333H16L21.3333 13.3333Z" fill="#ECECEE"/>
<path d="M17.3333 45.3333C17.3333 44.5969 16.7364 44 16 44C15.2636 44 14.6667 44.5969 14.6667 45.3333H17.3333ZM14.6667 29.3333C14.6667 30.0697 15.2636 30.6667 16 30.6667C16.7364 30.6667 17.3333 30.0697 17.3333 29.3333H14.6667ZM16.8957 19.9897L18.0051 20.7293L16.8957 19.9897ZM20.5417 14.5208L21.6511 15.2604L21.6511 15.2604L20.5417 14.5208ZM54.125 14.5208L55.2344 13.7812L55.2344 13.7812L54.125 14.5208ZM57.7709 19.9897L56.6615 20.7293L56.6615 20.7293L57.7709 19.9897ZM57.3333 22.9481V50.6667H60V22.9481H57.3333ZM56 52H18.6667V54.6667H56V52ZM17.3333 50.6667V45.3333H14.6667V50.6667H17.3333ZM17.3333 29.3333V22.9481H14.6667V29.3333H17.3333ZM18.0051 20.7293L21.6511 15.2604L19.4323 13.7812L15.7863 19.2501L18.0051 20.7293ZM22.7605 14.6667H51.9062V12H22.7605V14.6667ZM53.0156 15.2604L56.6615 20.7293L58.8803 19.2501L55.2344 13.7812L53.0156 15.2604ZM51.9062 14.6667C52.352 14.6667 52.7683 14.8895 53.0156 15.2604L55.2344 13.7812C54.4925 12.6684 53.2436 12 51.9062 12V14.6667ZM18.6667 52C17.9303 52 17.3333 51.403 17.3333 50.6667H14.6667C14.6667 52.8758 16.4575 54.6667 18.6667 54.6667V52ZM57.3333 50.6667C57.3333 51.403 56.7364 52 56 52V54.6667C58.2091 54.6667 60 52.8758 60 50.6667H57.3333ZM21.6511 15.2604C21.8984 14.8895 22.3147 14.6667 22.7605 14.6667V12C21.4231 12 20.1742 12.6684 19.4323 13.7812L21.6511 15.2604ZM60 22.9481C60 21.632 59.6104 20.3452 58.8803 19.2501L56.6615 20.7293C57.0996 21.3864 57.3333 22.1584 57.3333 22.9481H60ZM17.3333 22.9481C17.3333 22.1584 17.5671 21.3864 18.0051 20.7293L15.7863 19.2501C15.0563 20.3452 14.6667 21.632 14.6667 22.9481H17.3333Z" fill="#ED243F"/>
<path d="M58.6667 21.3333H16" stroke="#ED243F" stroke-width="2.66667"/>
<path d="M37.3333 21.3333V13.3333" stroke="#ED243F" stroke-width="2.66667"/>
<path d="M18.6667 41.3346C19.403 41.3346 20 40.7377 20 40.0013C20 39.2649 19.403 38.668 18.6667 38.668L18.6667 41.3346ZM18.6667 38.668L12 38.668L12 41.3346L18.6667 41.3346L18.6667 38.668Z" fill="#ED243F"/>
<path d="M18.6665 36.0013C19.4029 36.0013 19.9998 35.4043 19.9998 34.668C19.9998 33.9316 19.4029 33.3346 18.6665 33.3346L18.6665 36.0013ZM18.6665 33.3346L11.9998 33.3346L11.9998 36.0013L18.6665 36.0013L18.6665 33.3346Z" fill="#ED243F"/>
<path d="M13.3333 40.0013C13.3333 39.2649 12.7364 38.668 12 38.668C11.2636 38.668 10.6667 39.2649 10.6667 40.0013L13.3333 40.0013ZM10.6667 34.668C10.6667 35.4043 11.2636 36.0013 12 36.0013C12.7364 36.0013 13.3333 35.4043 13.3333 34.668L10.6667 34.668ZM11.51 42.0115L4.04923 36.6823L2.49926 38.8523L9.96002 44.1814L11.51 42.0115ZM4.04923 37.9843L11.51 32.6552L9.96001 30.4853L2.49926 35.8144L4.04923 37.9843ZM13.3333 42.4454L13.3333 40.0013L10.6667 40.0013L10.6667 42.4454L13.3333 42.4454ZM10.6667 32.2212L10.6667 34.668L13.3333 34.668L13.3333 32.2212L10.6667 32.2212ZM11.51 32.6552C11.157 32.9073 10.6667 32.655 10.6667 32.2212L13.3333 32.2212C13.3333 30.486 11.372 29.4767 9.96001 30.4853L11.51 32.6552ZM4.04923 36.6823C4.49591 37.0014 4.49591 37.6653 4.04923 37.9843L2.49926 35.8144C1.45701 36.5588 1.45701 38.1078 2.49926 38.8523L4.04923 36.6823ZM9.96002 44.1814C11.372 45.19 13.3333 44.1806 13.3333 42.4454L10.6667 42.4454C10.6667 42.0116 11.157 41.7593 11.51 42.0115L9.96002 44.1814Z" fill="#ED243F"/>
<path d="M42.6667 46.6667H53.3334" stroke="#ED243F" stroke-width="2.66667" stroke-linecap="round"/>
<path d="M48 41.3333H53.3333" stroke="#ED243F" stroke-width="2.66667" stroke-linecap="round"/>
</svg>
