<svg width="46" height="46" viewBox="0 0 46 46" fill="none" xmlns="http://www.w3.org/2000/svg">
<path d="M45.3803 16.6526C45.0901 15.8021 44.3228 15.2014 43.4273 15.1316L30.6001 14.1124L25.0493 1.82513C24.6871 1.01738 23.8838 0.499878 22.9996 0.499878C22.1153 0.499878 21.3121 1.01738 20.9498 1.82288L15.3991 14.1124L2.57184 15.1316C1.69209 15.2014 0.933836 15.7796 0.634586 16.6099C0.335336 17.4401 0.546836 18.3694 1.17909 18.9859L10.6583 28.2266L7.30584 42.7436C7.09884 43.6414 7.46109 44.5751 8.21934 45.0994C8.60634 45.3649 9.05184 45.4999 9.49959 45.4999C9.93384 45.4999 10.3703 45.3739 10.7483 45.1219L22.9996 36.9544L35.2508 45.1219C36.0338 45.6439 37.0621 45.6236 37.8271 45.0679C38.5876 44.5121 38.9228 43.5379 38.6641 42.6334L34.5488 28.2334L44.7548 19.0489C45.4231 18.4459 45.6683 17.5054 45.3803 16.6526Z" fill="black"/>
</svg>
