<svg width="60" height="44" viewBox="0 0 60 44" fill="none" xmlns="http://www.w3.org/2000/svg">
<g clip-path="url(#clip0)">
<path d="M39.3333 9.33333C40.0697 9.33333 40.6667 8.73638 40.6667 8C40.6667 7.26362 40.0697 6.66667 39.3333 6.66667V9.33333ZM54 21.3333C54 20.597 53.403 20 52.6667 20C51.9303 20 51.3333 20.597 51.3333 21.3333H54ZM4.66667 9.33333H39.3333V6.66667H4.66667V9.33333ZM50 41.3333H4.66667V44H50V41.3333ZM3.33333 40V10.6667H0.666667V40H3.33333ZM51.3333 21.3333V40H54V21.3333H51.3333ZM4.66667 41.3333C3.93029 41.3333 3.33333 40.7364 3.33333 40H0.666667C0.666667 42.2091 2.45753 44 4.66667 44V41.3333ZM50 44C52.2091 44 54 42.2091 54 40H51.3333C51.3333 40.7364 50.7364 41.3333 50 41.3333V44ZM4.66667 6.66667C2.45752 6.66667 0.666667 8.45753 0.666667 10.6667H3.33333C3.33333 9.93029 3.93029 9.33333 4.66667 9.33333V6.66667Z" fill="#ED243F"/>
<path d="M32.6667 9.33331H38V12C38 17.891 42.7756 22.6666 48.6667 22.6666H51.3333V28H46C38.6362 28 32.6667 22.0304 32.6667 14.6666V9.33331Z" fill="#ECECEE"/>
<path d="M56.4806 11.4038C55.9599 11.9245 55.1156 11.9245 54.5949 11.4038C54.0742 10.8831 54.0742 10.0388 54.5949 9.51815L56.4806 11.4038ZM51.1472 6.07043C50.6265 6.59113 49.7823 6.59113 49.2616 6.07043C48.7409 5.54973 48.7409 4.70551 49.2616 4.18482L51.1472 6.07043ZM49.2616 4.18482L51.3179 2.12849L53.2036 4.01411L51.1472 6.07043L49.2616 4.18482ZM58.5369 9.34744L56.4806 11.4038L54.5949 9.51815L56.6513 7.46182L58.5369 9.34744ZM58.5369 2.12849C60.5303 4.12195 60.5304 7.35398 58.5369 9.34744L56.6513 7.46182C57.6033 6.50976 57.6033 4.96617 56.6513 4.01411L58.5369 2.12849ZM56.6513 4.01411C55.6992 3.06205 54.1556 3.06205 53.2036 4.01411L51.3179 2.12849C53.3114 0.135029 56.5434 0.135031 58.5369 2.12849L56.6513 4.01411Z" fill="#ED243F"/>
<path d="M51.5018 12.6119C52.0225 12.0912 52.8668 12.0912 53.3875 12.6119C53.9082 13.1326 53.9082 13.9768 53.3875 14.4975L51.5018 12.6119ZM46.1685 7.27855C46.6892 6.75785 47.5334 6.75785 48.0541 7.27855C48.5748 7.79924 48.5748 8.64346 48.0541 9.16416L46.1685 7.27855ZM44.1305 9.31659L46.1685 7.27855L48.0541 9.16416L46.0161 11.2022L44.1305 9.31659ZM53.3875 14.4975L51.3494 16.5355L49.4638 14.6499L51.5018 12.6119L53.3875 14.4975ZM44.1305 16.5355C42.137 14.5421 42.137 11.31 44.1305 9.31659L46.0161 11.2022C45.064 12.1543 45.064 13.6979 46.0161 14.6499L44.1305 16.5355ZM46.0161 14.6499C46.9681 15.602 48.5117 15.602 49.4638 14.6499L51.3494 16.5355C49.356 18.529 46.1239 18.529 44.1305 16.5355L46.0161 14.6499Z" fill="#ED243F"/>
<path d="M50 10.6667L52.6667 8" stroke="#ED243F" stroke-width="2.66667" stroke-linecap="round"/>
<path d="M26.2763 23.228C24.857 23.228 20.8271 21.9331 19.1602 19.2843C19.0596 19.1246 18.8141 19.1459 18.7718 19.3298C18.2235 21.7173 19.7496 23.7944 20.2096 24.2543C19.6 24.2113 19.2382 24.1666 18.7469 23.9441C18.6562 23.903 18.5503 23.9669 18.552 24.0664C18.5677 24.9886 18.7684 26.703 21.3288 27.5286C20.4578 27.5286 19.9063 27.3623 19.626 27.2453C19.5273 27.2041 19.4042 27.2778 19.4184 27.3838C19.6103 28.8274 21.4285 29.9708 23.1692 29.9708C21.7488 30.8111 20.5276 31.1731 17.6273 31.2107C17.4763 31.2126 17.419 31.412 17.5474 31.4916L17.9125 31.7175C20.4349 33.2789 23.4815 33.7539 26.3595 33.0344C30.6389 31.9645 33.6409 28.1195 33.6409 23.7084V22.1578C33.6409 20.3275 32.1572 18.8438 30.3269 18.8438H29.9586C27.925 18.8438 26.2763 20.4924 26.2763 22.526V23.228Z" fill="#ED243F"/>
<path d="M34.5604 19.3387L31.8464 20.1345L32.1686 23.8513C33.3427 22.8759 34.3874 22.1431 35.1476 20.9423C35.222 20.8247 35.1148 20.6818 34.9795 20.7144L33.4896 21.0729C34.0312 20.6182 34.4155 20.1478 34.7412 19.558C34.8083 19.4365 34.6937 19.2996 34.5604 19.3387Z" fill="#ED243F"/>
<path d="M40.6667 8C40.6667 7.26362 40.0697 6.66667 39.3333 6.66667C38.5969 6.66667 38 7.26362 38 8H40.6667ZM52.6667 22.6667C53.403 22.6667 54 22.0697 54 21.3333C54 20.597 53.403 20 52.6667 20V22.6667ZM38 8V13.3333H40.6667V8H38ZM47.3333 22.6667H52.6667V20H47.3333V22.6667ZM38 13.3333C38 18.488 42.1787 22.6667 47.3333 22.6667V20C43.6514 20 40.6667 17.0152 40.6667 13.3333H38Z" fill="#ED243F"/>
</g>
<defs>
<clipPath id="clip0">
<rect width="60" height="44" fill="white"/>
</clipPath>
</defs>
</svg>
