<svg width="123" height="112" viewBox="0 0 123 112" fill="none" xmlns="http://www.w3.org/2000/svg">
<path d="M87.6361 111.918C85.7391 111.918 83.9777 110.563 83.5712 108.666C83.1647 107.176 81.8098 102.433 78.1515 101.214C77.203 100.943 76.39 100.672 75.7126 100.401C71.9187 99.3171 69.8863 98.6397 68.5314 95.5233C68.5314 95.5233 68.1249 95.2523 67.1764 95.2523C66.6345 95.2523 65.8215 95.3878 65.144 95.5233C63.6536 95.7943 62.0277 95.2523 61.0792 94.0329C59.5888 92.2714 58.3693 91.4585 57.6919 91.4585C56.7434 91.7295 55.6595 91.7295 54.44 91.7295C49.4267 91.7295 43.6005 90.1035 42.1101 85.3612C41.8391 84.4128 41.5681 83.7353 41.4326 83.0578C40.6196 80.2125 40.4841 79.535 37.5033 76.8251C36.4193 75.8767 35.3353 74.9282 34.1159 74.1152C30.7285 71.4054 27.0702 68.6955 27.6122 64.0887C27.7477 62.4627 28.0187 61.3788 28.2897 60.7013C28.2897 60.5658 28.2897 60.5658 28.2897 60.4303C27.8832 60.1594 27.3412 59.7529 27.2057 59.6174C26.5282 59.2109 25.9863 58.8044 25.4443 58.5334C23.1409 57.043 21.3795 55.959 20.8375 53.1137C20.431 50.6748 17.8566 47.4229 12.4369 42.2741C6.74611 36.9899 6.33962 30.7571 6.33962 29.1312C5.93314 28.4537 5.12018 27.2343 3.22326 25.7439C-0.977054 22.221 -0.570572 18.8337 1.59733 14.0914C3.22326 10.433 3.90073 8.40063 2.95227 5.69075C2.54579 4.33581 2.68128 2.98087 3.49425 1.76142C4.30721 0.677471 5.52666 0 6.8816 0H49.0202C51.3236 0 53.2206 1.89692 53.2206 4.20032V34.6865C53.2206 34.6865 53.2206 34.822 53.3561 34.822L114.464 79.806C116.496 81.2964 123 86.3097 123 90.3745C123 91.594 122.458 92.8134 121.374 93.4909L120.155 94.1684C116.903 96.4718 115.683 97.5557 116.09 98.7752C116.225 99.3171 116.632 100.13 116.903 100.943C118.258 104.059 119.613 107.311 118.122 109.479C117.58 110.157 116.632 111.105 114.735 111.105C111.077 111.105 93.7333 111.376 88.0425 111.918C87.907 111.918 87.7715 111.918 87.6361 111.918ZM67.0409 91.323C70.4283 91.323 71.7832 93.0844 72.1897 94.0329C72.7317 95.2523 73.0027 95.5233 76.7965 96.6072C77.6095 96.8782 78.4224 97.1492 79.3709 97.4202C84.9262 99.1816 86.9586 105.279 87.5006 107.718C87.5006 107.853 87.6361 107.853 87.6361 107.853C93.5978 107.311 110.806 107.04 114.735 107.04C114.735 105.956 113.651 103.653 113.244 102.569C112.838 101.621 112.431 100.808 112.296 99.9946C111.077 95.9298 114.328 93.4909 117.851 90.9165L118.664 90.3745C118.529 89.1551 115.277 85.7677 111.889 83.1933L50.7817 38.2093C49.6977 37.3964 49.0202 36.1769 49.0202 34.822V4.20032C49.0202 4.06482 48.8848 4.06482 48.8848 4.06482H6.61061V4.20032C8.10105 8.40063 6.8816 11.788 5.12018 15.5818C3.22326 19.7821 3.49425 20.5951 5.66215 22.492C7.83006 24.3889 9.0495 25.8794 9.59148 26.8278C9.99796 27.5053 10.269 28.3183 10.269 29.1312C10.269 30.4862 10.5399 35.093 15.0112 39.2933C21.3795 45.1195 24.0893 48.9133 24.6313 52.4362C24.7668 53.3847 25.1733 53.6556 27.3412 55.0106C27.8832 55.4171 28.4252 55.688 29.1026 56.23C31.677 57.9914 32.6255 58.8044 31.8125 61.6498C31.677 62.3273 31.406 63.1402 31.2705 64.3597C30.9995 66.5276 33.0319 68.289 36.2838 70.7279C37.5033 71.6763 38.7227 72.6248 39.9421 73.7088C43.465 77.0961 44.007 78.451 44.9554 81.8384C45.0909 82.5159 45.3619 83.1933 45.6329 84.1418C46.4459 86.5807 50.5107 87.6646 54.169 87.6646C54.982 87.6646 55.7949 87.5291 56.3369 87.5291C58.6403 86.9872 61.2147 88.3421 63.9246 91.4585H64.0601C65.2795 91.4585 66.228 91.323 67.0409 91.323Z" fill="#ED243F"/>
<path d="M49.5127 3.4325H6.25424L2.60593 19.5893L9.90254 33.1401L20.8475 49.8181L30.75 58.6783V67.0172L39.6102 75.8774L47.9492 88.3859L59.4153 90.4706L68.2754 94.1189L80.2627 99.3308L88.0805 108.191H115.703L113.097 99.3308L117.267 94.1189L119.873 88.3859L49.5127 35.2249V3.4325Z" fill="#ED243F"/>
</svg>
